<?xml version="1.0" standalone="yes"?>

<svg version="1.1" viewBox="0.0 0.0 651.4094488188977 415.9737532808399" fill="none" stroke="none" stroke-linecap="square" stroke-miterlimit="10" xmlns="http://www.w3.org/2000/svg" xmlns:xlink="http://www.w3.org/1999/xlink"><clipPath id="p.0"><path d="m0 0l651.4094 0l0 415.97375l-651.4094 0l0 -415.97375z" clip-rule="nonzero"></path></clipPath><g clip-path="url(#p.0)"><path fill="#000000" fill-opacity="0.0" d="m0 0l651.4094 0l0 415.97375l-651.4094 0z" fill-rule="evenodd"></path><path fill="#000000" fill-opacity="0.0" d="m228.58267 352.97638l0 0c0 -33.7807 43.100525 -61.165344 96.26773 -61.165344l0 0c53.167175 0 96.2677 27.384644 96.2677 61.165344l0 0c0 33.7807 -43.100525 61.165344 -96.2677 61.165344l0 0c-53.167206 0 -96.26773 -27.384644 -96.26773 -61.165344z" fill-rule="evenodd"></path><path stroke="#000000" stroke-width="2.0" stroke-linejoin="round" stroke-linecap="butt" d="m228.58267 352.97638l0 0c0 -33.7807 43.100525 -61.165344 96.26773 -61.165344l0 0c53.167175 0 96.2677 27.384644 96.2677 61.165344l0 0c0 33.7807 -43.100525 61.165344 -96.2677 61.165344l0 0c-53.167206 0 -96.26773 -27.384644 -96.26773 -61.165344z" fill-rule="evenodd"></path><path fill="#000000" d="m295.15982 316.2726l0.75 -1.078125l0.609375 0l0.046875 4.484375l-0.546875 0q-0.515625 -2.0625 -1.53125 -3.0q-1.0 -0.953125 -2.3125 -0.953125q-1.09375 0 -1.796875 0.65625q-0.703125 0.65625 -0.703125 1.59375q0 0.59375 0.265625 1.046875q0.265625 0.4375 0.796875 0.71875q0.53125 0.265625 1.984375 0.59375q2.0625 0.4375 2.875 0.90625q0.828125 0.453125 1.234375 1.140625q0.40625 0.6875 0.40625 1.625q0 1.65625 -1.109375 2.75q-1.109375 1.09375 -2.890625 1.09375q-1.890625 0 -3.296875 -1.234375l-0.9375 1.15625l-0.59375 0l0 -4.765625l0.59375 0q0.34375 1.96875 1.546875 3.109375q1.21875 1.140625 2.75 1.140625q1.21875 0 2.0 -0.71875q0.78125 -0.734375 0.78125 -1.78125q0 -0.578125 -0.296875 -1.015625q-0.296875 -0.453125 -0.921875 -0.75q-0.625 -0.3125 -2.484375 -0.75q-2.03125 -0.484375 -2.765625 -1.078125q-1.046875 -0.84375 -1.046875 -2.390625q0 -1.625 1.03125 -2.65625q1.046875 -1.03125 2.65625 -1.03125q0.765625 0 1.453125 0.28125q0.703125 0.265625 1.453125 0.90625zm10.914703 7.515625l-5.578125 0q0.046875 1.765625 0.671875 2.5q0.703125 0.828125 1.8125 0.828125q1.625 0 2.609375 -1.859375l0.546875 0.234375q-1.21875 2.359375 -3.5 2.359375q-1.5625 0 -2.640625 -1.125q-1.0625 -1.140625 -1.0625 -2.890625q0 -1.890625 1.046875 -3.0625q1.0625 -1.171875 2.59375 -1.171875q1.125 0 1.9375 0.59375q0.828125 0.578125 1.25 1.65625q0.296875 0.765625 0.3125 1.9375zm-5.578125 -0.59375l3.375 0q0.296875 0 0.453125 -0.203125q0.171875 -0.203125 0.171875 -0.703125q0 -0.90625 -0.578125 -1.546875q-0.5625 -0.640625 -1.328125 -0.640625q-0.859375 0 -1.46875 0.78125q-0.59375 0.765625 -0.625 2.3125zm7.4140625 -3.359375l2.234375 -0.140625q0.171875 0.875 0.234375 1.65625q0.640625 -0.90625 1.265625 -1.28125q0.625 -0.375 1.390625 -0.375q0.796875 0 1.3125 0.421875q0.53125 0.421875 0.8125 1.375q0.5625 -0.890625 1.234375 -1.34375q0.6875 -0.453125 1.484375 -0.453125q1.0625 0 1.59375 0.640625q0.6875 0.828125 0.6875 2.140625l0 3.859375q0 0.34375 0.171875 0.46875q0.234375 0.1875 0.6875 0.1875l0.390625 0l0 0.625l-3.90625 0l0 -0.625l0.390625 0q0.5 0 0.6875 -0.15625q0.203125 -0.171875 0.203125 -0.5l0 -3.859375q0 -0.875 -0.421875 -1.34375q-0.421875 -0.46875 -1.109375 -0.46875q-0.515625 0 -0.953125 0.28125q-0.421875 0.265625 -0.65625 0.78125q-0.359375 0.75 -0.359375 1.265625l0 3.34375q0 0.328125 0.1875 0.5q0.1875 0.15625 0.5625 0.15625l0.53125 0l0 0.625l-3.953125 0l0 -0.625l0.4375 0q0.421875 0 0.625 -0.15625q0.21875 -0.171875 0.21875 -0.4375l0 -3.578125q0 -1.140625 -0.40625 -1.65625q-0.40625 -0.515625 -1.078125 -0.515625q-0.875 0 -1.359375 0.609375q-0.671875 0.84375 -0.671875 1.96875l0 3.109375q0 0.34375 0.15625 0.484375q0.234375 0.171875 0.703125 0.171875l0.390625 0l0 0.625l-3.90625 0l0 -0.625l0.578125 0q0.34375 0 0.515625 -0.15625q0.171875 -0.171875 0.171875 -0.4375l0 -5.09375q0 -0.421875 -0.21875 -0.625q-0.203125 -0.203125 -0.859375 -0.265625l0 -0.578125zm23.15747 6.921875l0.296875 0.46875q-0.609375 0.625 -1.34375 0.625q-0.578125 0 -0.96875 -0.296875q-0.375 -0.3125 -0.671875 -1.09375q-0.78125 0.828125 -1.375 1.109375q-0.59375 0.28125 -1.4375 0.28125q-1.203125 0 -1.828125 -0.515625q-0.609375 -0.515625 -0.609375 -1.328125q0 -1.203125 1.421875 -2.0q1.421875 -0.8125 3.78125 -1.078125l0 -1.171875q0 -0.625 -0.515625 -1.078125q-0.5 -0.453125 -1.265625 -0.453125q-0.734375 0 -1.25 0.296875q-0.375 0.234375 -0.375 0.4375q0 0.125 0.203125 0.390625q0.234375 0.34375 0.234375 0.59375q0 0.375 -0.25 0.609375q-0.234375 0.234375 -0.625 0.234375q-0.40625 0 -0.6875 -0.28125q-0.28125 -0.28125 -0.28125 -0.71875q0 -0.828125 0.921875 -1.5q0.9375 -0.6875 2.4375 -0.6875q1.390625 0 2.109375 0.609375q0.734375 0.59375 0.734375 1.46875l0 4.25q0 0.5625 0.1875 0.828125q0.171875 0.265625 0.46875 0.265625q0.328125 0 0.6875 -0.265625zm-2.734375 -3.28125q-2.109375 0.296875 -2.984375 0.953125q-0.65625 0.5 -0.65625 1.40625q0 0.640625 0.34375 1.0q0.34375 0.359375 0.890625 0.359375q0.96875 0 1.6875 -0.734375q0.71875 -0.75 0.71875 -1.859375l0 -1.125zm4.15271 -3.640625l2.578125 -0.15625q0.15625 0.734375 0.234375 1.71875q0.515625 -0.859375 1.21875 -1.28125q0.71875 -0.421875 1.609375 -0.421875q0.78125 0 1.296875 0.3125q0.53125 0.296875 0.84375 0.953125q0.3125 0.65625 0.3125 1.46875l0 3.78125q0 0.421875 0.1875 0.609375q0.203125 0.171875 0.640625 0.171875l0.546875 0l0 0.625l-4.09375 0l0 -0.625l0.390625 0q0.546875 0 0.765625 -0.171875q0.21875 -0.171875 0.21875 -0.515625l0 -3.34375q0 -1.078125 -0.34375 -1.609375q-0.453125 -0.734375 -1.40625 -0.734375q-0.9375 0 -1.5625 0.75q-0.625 0.75 -0.625 1.96875l0 2.875q0 0.421875 0.1875 0.609375q0.203125 0.171875 0.640625 0.171875l0.546875 0l0 0.625l-4.125 0l0 -0.625l0.546875 0q0.40625 0 0.609375 -0.15625q0.21875 -0.171875 0.21875 -0.421875l0 -5.015625q0 -0.5 -0.265625 -0.75q-0.265625 -0.265625 -0.78125 -0.265625l-0.390625 0l0 -0.546875zm12.615967 -3.171875l0.5625 0l0 3.171875l2.515625 0l0 0.765625l-2.515625 0l0 4.984375q0 0.65625 0.3125 1.0q0.3125 0.34375 0.78125 0.34375q0.5625 0 0.953125 -0.515625q0.40625 -0.53125 0.46875 -1.734375l0.5625 0q-0.046875 1.546875 -0.703125 2.296875q-0.65625 0.75 -1.703125 0.75q-0.96875 0 -1.515625 -0.515625q-0.53125 -0.53125 -0.53125 -1.390625l0 -5.21875l-1.359375 0l0 -0.578125q0.921875 -0.15625 1.40625 -0.78125q0.71875 -0.90625 0.765625 -2.578125zm6.7121887 -1.46875q0.375 0 0.65625 0.28125q0.28125 0.28125 0.28125 0.671875q0 0.375 -0.28125 0.65625q-0.265625 0.265625 -0.65625 0.265625q-0.375 0 -0.65625 -0.28125q-0.28125 -0.28125 -0.28125 -0.65625q0 -0.375 0.28125 -0.65625q0.28125 -0.28125 0.65625 -0.28125zm-2.15625 4.640625l3.09375 -0.09375l0 6.703125q0 0.265625 0.125 0.390625q0.1875 0.15625 0.484375 0.15625l0.875 0l0 0.625l-4.40625 0l0 -0.625l0.8125 0q0.375 0 0.53125 -0.171875q0.171875 -0.1875 0.171875 -0.515625l0 -4.90625q0 -0.46875 -0.265625 -0.703125q-0.265625 -0.234375 -0.78125 -0.234375l-0.640625 0l0 -0.625zm11.551086 5.46875l0.546875 0.15625q-0.65625 2.390625 -2.859375 2.390625q-1.625 0 -2.65625 -1.0625q-1.03125 -1.078125 -1.03125 -2.859375q0 -2.0625 1.125 -3.1875q1.140625 -1.140625 2.671875 -1.140625q1.140625 0 1.890625 0.640625q0.75 0.625 0.75 1.390625q0 0.46875 -0.28125 0.78125q-0.28125 0.296875 -0.65625 0.296875q-0.375 0 -0.640625 -0.25q-0.25 -0.265625 -0.25 -0.625q0 -0.375 0.28125 -0.703125q0.125 -0.15625 0.125 -0.25q0 -0.234375 -0.328125 -0.453125q-0.3125 -0.234375 -0.875 -0.234375q-1.015625 0 -1.53125 0.734375q-0.75 1.0625 -0.75 2.8125q0 1.671875 0.65625 2.53125q0.671875 0.859375 1.703125 0.859375q1.421875 0 2.109375 -1.828125z" fill-rule="nonzero"></path><path fill="#000000" d="m277.02368 337.2726l0.75 -1.078125l0.609375 0l0.046875 4.484375l-0.546875 0q-0.515625 -2.0625 -1.53125 -3.0q-1.0 -0.953125 -2.3125 -0.953125q-1.09375 0 -1.796875 0.65625q-0.703125 0.65625 -0.703125 1.59375q0 0.59375 0.265625 1.046875q0.265625 0.4375 0.796875 0.71875q0.53125 0.265625 1.984375 0.59375q2.0625 0.4375 2.875 0.90625q0.828125 0.453125 1.234375 1.140625q0.40625 0.6875 0.40625 1.625q0 1.65625 -1.109375 2.75q-1.109375 1.09375 -2.890625 1.09375q-1.890625 0 -3.296875 -1.234375l-0.9375 1.15625l-0.59375 0l0 -4.765625l0.59375 0q0.34375 1.96875 1.546875 3.109375q1.21875 1.140625 2.75 1.140625q1.21875 0 2.0 -0.71875q0.78125 -0.734375 0.78125 -1.78125q0 -0.578125 -0.296875 -1.015625q-0.296875 -0.453125 -0.921875 -0.75q-0.625 -0.3125 -2.484375 -0.75q-2.03125 -0.484375 -2.765625 -1.078125q-1.046875 -0.84375 -1.046875 -2.390625q0 -1.625 1.03125 -2.65625q1.046875 -1.03125 2.65625 -1.03125q0.765625 0 1.453125 0.28125q0.703125 0.265625 1.453125 0.90625zm10.914673 7.515625l-5.578125 0q0.046875 1.765625 0.671875 2.5q0.703125 0.828125 1.8125 0.828125q1.625 0 2.609375 -1.859375l0.546875 0.234375q-1.21875 2.359375 -3.5 2.359375q-1.5625 0 -2.640625 -1.125q-1.0625 -1.140625 -1.0625 -2.890625q0 -1.890625 1.046875 -3.0625q1.0625 -1.171875 2.59375 -1.171875q1.125 0 1.9375 0.59375q0.828125 0.578125 1.25 1.65625q0.296875 0.765625 0.3125 1.9375zm-5.578125 -0.59375l3.375 0q0.296875 0 0.453125 -0.203125q0.171875 -0.203125 0.171875 -0.703125q0 -0.90625 -0.578125 -1.546875q-0.5625 -0.640625 -1.328125 -0.640625q-0.859375 0 -1.46875 0.78125q-0.59375 0.765625 -0.625 2.3125zm12.8984375 -2.921875q0.828125 -0.828125 1.53125 -0.828125q0.40625 0 0.671875 0.265625q0.28125 0.265625 0.28125 0.640625q0 0.3125 -0.1875 0.515625q-0.171875 0.203125 -0.421875 0.203125q-0.484375 0 -0.640625 -0.578125q-0.078125 -0.25 -0.234375 -0.25q-0.28125 0 -0.609375 0.375q0.359375 0.484375 0.484375 0.84375q0.140625 0.359375 0.140625 0.78125q0 0.71875 -0.359375 1.28125q-0.34375 0.546875 -1.15625 0.96875q-0.796875 0.421875 -1.546875 0.421875l-0.90625 0q-0.953125 0 -1.265625 0.203125q-0.328125 0.203125 -0.328125 0.59375q0 0.328125 0.265625 0.5q0.25 0.171875 0.96875 0.171875l2.046875 -0.03125q1.5625 0 2.234375 0.515625q0.6875 0.515625 0.6875 1.421875q0 1.0 -0.78125 1.671875q-1.078125 0.96875 -3.234375 0.96875q-1.796875 0 -2.65625 -0.65625q-0.671875 -0.515625 -0.671875 -1.15625q0 -0.484375 0.421875 -0.890625q0.4375 -0.40625 1.46875 -0.609375q-0.8125 -0.203125 -1.234375 -0.578125q-0.40625 -0.390625 -0.40625 -0.96875q0 -0.53125 0.328125 -0.921875q0.34375 -0.390625 1.171875 -0.671875q-0.703125 -0.390625 -1.0625 -0.9375q-0.359375 -0.5625 -0.359375 -1.28125q0 -1.125 0.890625 -1.890625q0.890625 -0.765625 2.296875 -0.765625q0.59375 0 1.125 0.171875q0.546875 0.171875 1.046875 0.5zm-2.1875 -0.140625q-0.734375 0 -1.21875 0.546875q-0.484375 0.546875 -0.484375 1.53125q0 1.046875 0.484375 1.625q0.484375 0.5625 1.234375 0.5625q0.75 0 1.21875 -0.546875q0.484375 -0.5625 0.484375 -1.609375q0 -0.96875 -0.484375 -1.53125q-0.484375 -0.578125 -1.234375 -0.578125zm0.5 7.5q-1.53125 0 -2.1875 0.421875q-0.640625 0.421875 -0.640625 1.015625q0 0.5625 0.484375 0.890625q0.640625 0.421875 1.84375 0.421875q1.421875 0 2.140625 -0.46875q0.734375 -0.46875 0.734375 -1.046875q0 -0.34375 -0.234375 -0.640625q-0.21875 -0.296875 -0.71875 -0.453125q-0.484375 -0.140625 -1.421875 -0.140625zm5.5102234 -7.796875l2.234375 -0.140625q0.171875 0.875 0.234375 1.65625q0.640625 -0.90625 1.265625 -1.28125q0.625 -0.375 1.390625 -0.375q0.796875 0 1.3125 0.421875q0.53125 0.421875 0.8125 1.375q0.5625 -0.890625 1.234375 -1.34375q0.6875 -0.453125 1.484375 -0.453125q1.0625 0 1.59375 0.640625q0.6875 0.828125 0.6875 2.140625l0 3.859375q0 0.34375 0.171875 0.46875q0.234375 0.1875 0.6875 0.1875l0.390625 0l0 0.625l-3.90625 0l0 -0.625l0.390625 0q0.5 0 0.6875 -0.15625q0.203125 -0.171875 0.203125 -0.5l0 -3.859375q0 -0.875 -0.421875 -1.34375q-0.421875 -0.46875 -1.109375 -0.46875q-0.515625 0 -0.953125 0.28125q-0.421875 0.265625 -0.65625 0.78125q-0.359375 0.75 -0.359375 1.265625l0 3.34375q0 0.328125 0.1875 0.5q0.1875 0.15625 0.5625 0.15625l0.53125 0l0 0.625l-3.953125 0l0 -0.625l0.4375 0q0.421875 0 0.625 -0.15625q0.21875 -0.171875 0.21875 -0.4375l0 -3.578125q0 -1.140625 -0.40625 -1.65625q-0.40625 -0.515625 -1.078125 -0.515625q-0.875 0 -1.359375 0.609375q-0.671875 0.84375 -0.671875 1.96875l0 3.109375q0 0.34375 0.15625 0.484375q0.234375 0.171875 0.703125 0.171875l0.390625 0l0 0.625l-3.90625 0l0 -0.625l0.578125 0q0.34375 0 0.515625 -0.15625q0.171875 -0.171875 0.171875 -0.4375l0 -5.09375q0 -0.421875 -0.21875 -0.625q-0.203125 -0.203125 -0.859375 -0.265625l0 -0.578125zm22.235626 3.953125l-5.578125 0q0.046875 1.765625 0.671875 2.5q0.703125 0.828125 1.8125 0.828125q1.625 0 2.609375 -1.859375l0.546875 0.234375q-1.21875 2.359375 -3.5 2.359375q-1.5625 0 -2.640625 -1.125q-1.0625 -1.140625 -1.0625 -2.890625q0 -1.890625 1.046875 -3.0625q1.0625 -1.171875 2.59375 -1.171875q1.125 0 1.9375 0.59375q0.828125 0.578125 1.25 1.65625q0.296875 0.765625 0.3125 1.9375zm-5.578125 -0.59375l3.375 0q0.296875 0 0.453125 -0.203125q0.171875 -0.203125 0.171875 -0.703125q0 -0.90625 -0.578125 -1.546875q-0.5625 -0.640625 -1.328125 -0.640625q-0.859375 0 -1.46875 0.78125q-0.59375 0.765625 -0.625 2.3125zm6.9453125 -3.359375l2.578125 -0.15625q0.15625 0.734375 0.234375 1.71875q0.515625 -0.859375 1.21875 -1.28125q0.71875 -0.421875 1.609375 -0.421875q0.78125 0 1.296875 0.3125q0.53125 0.296875 0.84375 0.953125q0.3125 0.65625 0.3125 1.46875l0 3.78125q0 0.421875 0.1875 0.609375q0.203125 0.171875 0.640625 0.171875l0.546875 0l0 0.625l-4.09375 0l0 -0.625l0.390625 0q0.546875 0 0.765625 -0.171875q0.21875 -0.171875 0.21875 -0.515625l0 -3.34375q0 -1.078125 -0.34375 -1.609375q-0.453125 -0.734375 -1.40625 -0.734375q-0.9375 0 -1.5625 0.75q-0.625 0.75 -0.625 1.96875l0 2.875q0 0.421875 0.1875 0.609375q0.203125 0.171875 0.640625 0.171875l0.546875 0l0 0.625l-4.125 0l0 -0.625l0.546875 0q0.40625 0 0.609375 -0.15625q0.21875 -0.171875 0.21875 -0.421875l0 -5.015625q0 -0.5 -0.265625 -0.75q-0.265625 -0.265625 -0.78125 -0.265625l-0.390625 0l0 -0.546875zm12.615967 -3.171875l0.5625 0l0 3.171875l2.515625 0l0 0.765625l-2.515625 0l0 4.984375q0 0.65625 0.3125 1.0q0.3125 0.34375 0.78125 0.34375q0.5625 0 0.953125 -0.515625q0.40625 -0.53125 0.46875 -1.734375l0.5625 0q-0.046875 1.546875 -0.703125 2.296875q-0.65625 0.75 -1.703125 0.75q-0.96875 0 -1.515625 -0.515625q-0.53125 -0.53125 -0.53125 -1.390625l0 -5.21875l-1.359375 0l0 -0.578125q0.921875 -0.15625 1.40625 -0.78125q0.71875 -0.90625 0.765625 -2.578125zm12.930908 10.09375l0.296875 0.46875q-0.609375 0.625 -1.34375 0.625q-0.578125 0 -0.96875 -0.296875q-0.375 -0.3125 -0.671875 -1.09375q-0.78125 0.828125 -1.375 1.109375q-0.59375 0.28125 -1.4375 0.28125q-1.203125 0 -1.828125 -0.515625q-0.609375 -0.515625 -0.609375 -1.328125q0 -1.203125 1.421875 -2.0q1.421875 -0.8125 3.78125 -1.078125l0 -1.171875q0 -0.625 -0.515625 -1.078125q-0.5 -0.453125 -1.265625 -0.453125q-0.734375 0 -1.25 0.296875q-0.375 0.234375 -0.375 0.4375q0 0.125 0.203125 0.390625q0.234375 0.34375 0.234375 0.59375q0 0.375 -0.25 0.609375q-0.234375 0.234375 -0.625 0.234375q-0.40625 0 -0.6875 -0.28125q-0.28125 -0.28125 -0.28125 -0.71875q0 -0.828125 0.921875 -1.5q0.9375 -0.6875 2.4375 -0.6875q1.390625 0 2.109375 0.609375q0.734375 0.59375 0.734375 1.46875l0 4.25q0 0.5625 0.1875 0.828125q0.171875 0.265625 0.46875 0.265625q0.328125 0 0.6875 -0.265625zm-2.734375 -3.28125q-2.109375 0.296875 -2.984375 0.953125q-0.65625 0.5 -0.65625 1.40625q0 0.640625 0.34375 1.0q0.34375 0.359375 0.890625 0.359375q0.96875 0 1.6875 -0.734375q0.71875 -0.75 0.71875 -1.859375l0 -1.125zm6.18396 -6.8125l0.5625 0l0 3.171875l2.515625 0l0 0.765625l-2.515625 0l0 4.984375q0 0.65625 0.3125 1.0q0.3125 0.34375 0.78125 0.34375q0.5625 0 0.953125 -0.515625q0.40625 -0.53125 0.46875 -1.734375l0.5625 0q-0.046875 1.546875 -0.703125 2.296875q-0.65625 0.75 -1.703125 0.75q-0.96875 0 -1.515625 -0.515625q-0.53125 -0.53125 -0.53125 -1.390625l0 -5.21875l-1.359375 0l0 -0.578125q0.921875 -0.15625 1.40625 -0.78125q0.71875 -0.90625 0.765625 -2.578125zm6.7121887 -1.46875q0.375 0 0.65625 0.28125q0.28125 0.28125 0.28125 0.671875q0 0.375 -0.28125 0.65625q-0.265625 0.265625 -0.65625 0.265625q-0.375 0 -0.65625 -0.28125q-0.28125 -0.28125 -0.28125 -0.65625q0 -0.375 0.28125 -0.65625q0.28125 -0.28125 0.65625 -0.28125zm-2.15625 4.640625l3.09375 -0.09375l0 6.703125q0 0.265625 0.125 0.390625q0.1875 0.15625 0.484375 0.15625l0.875 0l0 0.625l-4.40625 0l0 -0.625l0.8125 0q0.375 0 0.53125 -0.171875q0.171875 -0.1875 0.171875 -0.515625l0 -4.90625q0 -0.46875 -0.265625 -0.703125q-0.265625 -0.234375 -0.78125 -0.234375l-0.640625 0l0 -0.625zm9.269836 -0.234375q1.578125 0 2.640625 1.140625q1.0625 1.125 1.0625 2.984375q0 1.28125 -0.484375 2.1875q-0.46875 0.890625 -1.359375 1.421875q-0.875 0.515625 -1.890625 0.515625q-1.515625 0 -2.5625 -1.140625q-1.046875 -1.15625 -1.046875 -2.984375q0 -1.828125 1.046875 -2.96875q1.0625 -1.15625 2.59375 -1.15625zm0 0.59375q-0.921875 0 -1.53125 0.84375q-0.59375 0.84375 -0.59375 2.65625q0 1.859375 0.59375 2.71875q0.59375 0.84375 1.53125 0.84375q0.984375 0 1.578125 -0.84375q0.609375 -0.859375 0.609375 -2.8125q0 -1.796875 -0.59375 -2.59375q-0.59375 -0.8125 -1.59375 -0.8125zm5.0078125 -0.359375l2.578125 -0.15625q0.15625 0.734375 0.234375 1.71875q0.515625 -0.859375 1.21875 -1.28125q0.71875 -0.421875 1.609375 -0.421875q0.78125 0 1.296875 0.3125q0.53125 0.296875 0.84375 0.953125q0.3125 0.65625 0.3125 1.46875l0 3.78125q0 0.421875 0.1875 0.609375q0.203125 0.171875 0.640625 0.171875l0.546875 0l0 0.625l-4.09375 0l0 -0.625l0.390625 0q0.546875 0 0.765625 -0.171875q0.21875 -0.171875 0.21875 -0.515625l0 -3.34375q0 -1.078125 -0.34375 -1.609375q-0.453125 -0.734375 -1.40625 -0.734375q-0.9375 0 -1.5625 0.75q-0.625 0.75 -0.625 1.96875l0 2.875q0 0.421875 0.1875 0.609375q0.203125 0.171875 0.640625 0.171875l0.546875 0l0 0.625l-4.125 0l0 -0.625l0.546875 0q0.40625 0 0.609375 -0.15625q0.21875 -0.171875 0.21875 -0.421875l0 -5.015625q0 -0.5 -0.265625 -0.75q-0.265625 -0.265625 -0.78125 -0.265625l-0.390625 0l0 -0.546875z" fill-rule="nonzero"></path><path fill="#000000" fill-opacity="0.0" d="m203.29134 296.81366l0 0c0 -36.54648 54.423843 -66.17323 121.55907 -66.17323l0 0c67.13519 0 121.55905 29.626755 121.55905 66.17323l0 0c0 36.546448 -54.42386 66.17322 -121.55905 66.17322l0 0c-67.13522 0 -121.55907 -29.62677 -121.55907 -66.17322z" fill-rule="evenodd"></path><path stroke="#000000" stroke-width="2.0" stroke-linejoin="round" stroke-linecap="butt" d="m203.29134 296.81366l0 0c0 -36.54648 54.423843 -66.17323 121.55907 -66.17323l0 0c67.13519 0 121.55905 29.626755 121.55905 66.17323l0 0c0 36.546448 -54.42386 66.17322 -121.55905 66.17322l0 0c-67.13522 0 -121.55907 -29.62677 -121.55907 -66.17322z" fill-rule="evenodd"></path><path fill="#000000" d="m278.53424 249.62552l0.5625 -1.1875l0.53125 0l0.203125 4.9375l-0.546875 0q-0.546875 -2.078125 -1.375 -3.0625q-1.03125 -1.234375 -2.46875 -1.234375q-1.53125 0 -2.515625 1.375q-0.96875 1.375 -0.96875 4.671875q0 2.75 1.125 4.203125q0.9375 1.234375 2.65625 1.234375q1.484375 0 2.5 -0.953125q1.015625 -0.96875 1.3125 -2.890625l0.59375 0q-0.25 2.1875 -1.5 3.375q-1.25 1.171875 -3.140625 1.171875q-1.53125 0 -2.8125 -0.765625q-1.28125 -0.78125 -2.0625 -2.234375q-0.765625 -1.453125 -0.765625 -3.171875q0 -1.828125 0.796875 -3.4375q0.796875 -1.625 2.03125 -2.421875q1.234375 -0.8125 2.671875 -0.8125q0.796875 0 1.53125 0.28125q0.75 0.265625 1.640625 0.921875zm6.8888245 3.3125q1.578125 0 2.640625 1.140625q1.0625 1.125 1.0625 2.984375q0 1.28125 -0.484375 2.1875q-0.46875 0.890625 -1.359375 1.421875q-0.875 0.515625 -1.890625 0.515625q-1.515625 0 -2.5625 -1.140625q-1.046875 -1.15625 -1.046875 -2.984375q0 -1.828125 1.046875 -2.96875q1.0625 -1.15625 2.59375 -1.15625zm0 0.59375q-0.921875 0 -1.53125 0.84375q-0.59375 0.84375 -0.59375 2.65625q0 1.859375 0.59375 2.71875q0.59375 0.84375 1.53125 0.84375q0.984375 0 1.578125 -0.84375q0.609375 -0.859375 0.609375 -2.8125q0 -1.796875 -0.59375 -2.59375q-0.59375 -0.8125 -1.59375 -0.8125zm5.0078125 -0.359375l2.578125 -0.15625q0.15625 0.734375 0.234375 1.71875q0.515625 -0.859375 1.21875 -1.28125q0.71875 -0.421875 1.609375 -0.421875q0.78125 0 1.296875 0.3125q0.53125 0.296875 0.84375 0.953125q0.3125 0.65625 0.3125 1.46875l0 3.78125q0 0.421875 0.1875 0.609375q0.203125 0.171875 0.640625 0.171875l0.546875 0l0 0.625l-4.09375 0l0 -0.625l0.390625 0q0.546875 0 0.765625 -0.171875q0.21875 -0.171875 0.21875 -0.515625l0 -3.34375q0 -1.078125 -0.34375 -1.609375q-0.453125 -0.734375 -1.40625 -0.734375q-0.9375 0 -1.5625 0.75q-0.625 0.75 -0.625 1.96875l0 2.875q0 0.421875 0.1875 0.609375q0.203125 0.171875 0.640625 0.171875l0.546875 0l0 0.625l-4.125 0l0 -0.625l0.546875 0q0.40625 0 0.609375 -0.15625q0.21875 -0.171875 0.21875 -0.421875l0 -5.015625q0 -0.5 -0.265625 -0.75q-0.265625 -0.265625 -0.78125 -0.265625l-0.390625 0l0 -0.546875zm10.240967 0l3.828125 0l0 0.5625q-0.765625 0.015625 -0.984375 0.140625q-0.203125 0.125 -0.203125 0.34375q0 0.1875 0.078125 0.375l2.0625 4.578125l1.875 -4.4375q0.046875 -0.125 0.046875 -0.234375q0 -0.609375 -1.1875 -0.765625l0 -0.5625l3.21875 0l0 0.5625q-0.5 0.0625 -0.796875 0.28125q-0.28125 0.203125 -0.4375 0.578125l-2.859375 6.59375l-0.4375 0l-3.0625 -6.78125q-0.15625 -0.375 -0.40625 -0.515625q-0.234375 -0.140625 -0.734375 -0.15625l0 -0.5625zm13.307098 -0.234375q1.578125 0 2.640625 1.140625q1.0625 1.125 1.0625 2.984375q0 1.28125 -0.484375 2.1875q-0.46875 0.890625 -1.359375 1.421875q-0.875 0.515625 -1.890625 0.515625q-1.515625 0 -2.5625 -1.140625q-1.046875 -1.15625 -1.046875 -2.984375q0 -1.828125 1.046875 -2.96875q1.0625 -1.15625 2.59375 -1.15625zm0 0.59375q-0.921875 0 -1.53125 0.84375q-0.59375 0.84375 -0.59375 2.65625q0 1.859375 0.59375 2.71875q0.59375 0.84375 1.53125 0.84375q0.984375 0 1.578125 -0.84375q0.609375 -0.859375 0.609375 -2.8125q0 -1.796875 -0.59375 -2.59375q-0.59375 -0.8125 -1.59375 -0.8125zm7.9296875 -5.0l0 11.28125q0 0.234375 0.140625 0.359375q0.203125 0.15625 0.515625 0.15625l0.8125 0l0 0.625l-4.390625 0l0 -0.625l0.78125 0q0.375 0 0.5625 -0.171875q0.1875 -0.1875 0.1875 -0.515625l0 -9.46875q0 -0.421875 -0.21875 -0.609375q-0.3125 -0.265625 -0.765625 -0.265625l-0.6875 0l0 -0.625l3.0625 -0.140625zm5.1917114 4.5l0 5.15625q0 0.953125 0.46875 1.46875q0.484375 0.515625 1.25 0.515625q0.921875 0 1.5625 -0.75q0.65625 -0.765625 0.65625 -1.890625l0 -2.90625q0 -0.40625 -0.28125 -0.625q-0.28125 -0.21875 -1.09375 -0.25l0 -0.578125l2.734375 -0.140625l0 6.390625q0 0.4375 0.234375 0.671875q0.25 0.234375 0.703125 0.234375l0.484375 0l0 0.5625l-2.609375 0.0625l-0.171875 -1.53125q-0.6875 0.8125 -1.390625 1.234375q-0.703125 0.40625 -1.4375 0.40625q-1.046875 0 -1.765625 -0.703125q-0.71875 -0.6875 -0.71875 -2.359375l0 -3.375q0 -0.453125 -0.359375 -0.6875q-0.25 -0.171875 -1.015625 -0.1875l0 -0.578125l2.75 -0.140625zm9.959717 -3.03125l0.5625 0l0 3.171875l2.515625 0l0 0.765625l-2.515625 0l0 4.984375q0 0.65625 0.3125 1.0q0.3125 0.34375 0.78125 0.34375q0.5625 0 0.953125 -0.515625q0.40625 -0.53125 0.46875 -1.734375l0.5625 0q-0.046875 1.546875 -0.703125 2.296875q-0.65625 0.75 -1.703125 0.75q-0.96875 0 -1.515625 -0.515625q-0.53125 -0.53125 -0.53125 -1.390625l0 -5.21875l-1.359375 0l0 -0.578125q0.921875 -0.15625 1.40625 -0.78125q0.71875 -0.90625 0.765625 -2.578125zm6.7121887 -1.46875q0.375 0 0.65625 0.28125q0.28125 0.28125 0.28125 0.671875q0 0.375 -0.28125 0.65625q-0.265625 0.265625 -0.65625 0.265625q-0.375 0 -0.65625 -0.28125q-0.28125 -0.28125 -0.28125 -0.65625q0 -0.375 0.28125 -0.65625q0.28125 -0.28125 0.65625 -0.28125zm-2.15625 4.640625l3.09375 -0.09375l0 6.703125q0 0.265625 0.125 0.390625q0.1875 0.15625 0.484375 0.15625l0.875 0l0 0.625l-4.40625 0l0 -0.625l0.8125 0q0.375 0 0.53125 -0.171875q0.171875 -0.1875 0.171875 -0.515625l0 -4.90625q0 -0.46875 -0.265625 -0.703125q-0.265625 -0.234375 -0.78125 -0.234375l-0.640625 0l0 -0.625zm9.269836 -0.234375q1.578125 0 2.640625 1.140625q1.0625 1.125 1.0625 2.984375q0 1.28125 -0.484375 2.1875q-0.46875 0.890625 -1.359375 1.421875q-0.875 0.515625 -1.890625 0.515625q-1.515625 0 -2.5625 -1.140625q-1.046875 -1.15625 -1.046875 -2.984375q0 -1.828125 1.046875 -2.96875q1.0625 -1.15625 2.59375 -1.15625zm0 0.59375q-0.921875 0 -1.53125 0.84375q-0.59375 0.84375 -0.59375 2.65625q0 1.859375 0.59375 2.71875q0.59375 0.84375 1.53125 0.84375q0.984375 0 1.578125 -0.84375q0.609375 -0.859375 0.609375 -2.8125q0 -1.796875 -0.59375 -2.59375q-0.59375 -0.8125 -1.59375 -0.8125zm5.0078125 -0.359375l2.578125 -0.15625q0.15625 0.734375 0.234375 1.71875q0.515625 -0.859375 1.21875 -1.28125q0.71875 -0.421875 1.609375 -0.421875q0.78125 0 1.296875 0.3125q0.53125 0.296875 0.84375 0.953125q0.3125 0.65625 0.3125 1.46875l0 3.78125q0 0.421875 0.1875 0.609375q0.203125 0.171875 0.640625 0.171875l0.546875 0l0 0.625l-4.09375 0l0 -0.625l0.390625 0q0.546875 0 0.765625 -0.171875q0.21875 -0.171875 0.21875 -0.515625l0 -3.34375q0 -1.078125 -0.34375 -1.609375q-0.453125 -0.734375 -1.40625 -0.734375q-0.9375 0 -1.5625 0.75q-0.625 0.75 -0.625 1.96875l0 2.875q0 0.421875 0.1875 0.609375q0.203125 0.171875 0.640625 0.171875l0.546875 0l0 0.625l-4.125 0l0 -0.625l0.546875 0q0.40625 0 0.609375 -0.15625q0.21875 -0.171875 0.21875 -0.421875l0 -5.015625q0 -0.5 -0.265625 -0.75q-0.265625 -0.265625 -0.78125 -0.265625l-0.390625 0l0 -0.546875zm18.803467 6.921875l0.296875 0.46875q-0.609375 0.625 -1.34375 0.625q-0.578125 0 -0.96875 -0.296875q-0.375 -0.3125 -0.671875 -1.09375q-0.78125 0.828125 -1.375 1.109375q-0.59375 0.28125 -1.4375 0.28125q-1.203125 0 -1.828125 -0.515625q-0.609375 -0.515625 -0.609375 -1.328125q0 -1.203125 1.421875 -2.0q1.421875 -0.8125 3.78125 -1.078125l0 -1.171875q0 -0.625 -0.515625 -1.078125q-0.5 -0.453125 -1.265625 -0.453125q-0.734375 0 -1.25 0.296875q-0.375 0.234375 -0.375 0.4375q0 0.125 0.203125 0.390625q0.234375 0.34375 0.234375 0.59375q0 0.375 -0.25 0.609375q-0.234375 0.234375 -0.625 0.234375q-0.40625 0 -0.6875 -0.28125q-0.28125 -0.28125 -0.28125 -0.71875q0 -0.828125 0.921875 -1.5q0.9375 -0.6875 2.4375 -0.6875q1.390625 0 2.109375 0.609375q0.734375 0.59375 0.734375 1.46875l0 4.25q0 0.5625 0.1875 0.828125q0.171875 0.265625 0.46875 0.265625q0.328125 0 0.6875 -0.265625zm-2.734375 -3.28125q-2.109375 0.296875 -2.984375 0.953125q-0.65625 0.5 -0.65625 1.40625q0 0.640625 0.34375 1.0q0.34375 0.359375 0.890625 0.359375q0.96875 0 1.6875 -0.734375q0.71875 -0.75 0.71875 -1.859375l0 -1.125zm7.074585 -8.28125l0 11.28125q0 0.234375 0.140625 0.359375q0.203125 0.15625 0.515625 0.15625l0.8125 0l0 0.625l-4.390625 0l0 -0.625l0.78125 0q0.375 0 0.5625 -0.171875q0.1875 -0.1875 0.1875 -0.515625l0 -9.46875q0 -0.421875 -0.21875 -0.609375q-0.3125 -0.265625 -0.765625 -0.265625l-0.6875 0l0 -0.625l3.0625 -0.140625z" fill-rule="nonzero"></path><path fill="#000000" d="m256.24097 269.6724l2.921875 0l7.40625 9.65625l0 -6.984375q0 -1.0625 -0.484375 -1.5625q-0.4375 -0.46875 -1.3125 -0.484375l0 -0.625l4.296875 0l0 0.625q-0.65625 0 -0.984375 0.1875q-0.3125 0.171875 -0.5625 0.65625q-0.234375 0.484375 -0.234375 1.0625l0 9.75l-0.78125 0l-7.671875 -10.03125l0 7.40625q0 1.0 0.5 1.5q0.515625 0.484375 1.578125 0.5l0 0.625l-4.671875 0l0 -0.625q0.875 -0.03125 1.390625 -0.578125q0.515625 -0.546875 0.515625 -1.328125l0 -8.328125l-0.140625 -0.140625q-0.421875 -0.453125 -0.59375 -0.53125q-0.234375 -0.125 -0.625 -0.125l-0.546875 0l0 -0.625zm21.27768 8.453125l-5.578125 0q0.046875 1.765625 0.671875 2.5q0.703125 0.828125 1.8125 0.828125q1.625 0 2.609375 -1.859375l0.546875 0.234375q-1.21875 2.359375 -3.5 2.359375q-1.5625 0 -2.640625 -1.125q-1.0625 -1.140625 -1.0625 -2.890625q0 -1.890625 1.046875 -3.0625q1.0625 -1.171875 2.59375 -1.171875q1.125 0 1.9375 0.59375q0.828125 0.578125 1.25 1.65625q0.296875 0.765625 0.3125 1.9375zm-5.578125 -0.59375l3.375 0q0.296875 0 0.453125 -0.203125q0.171875 -0.203125 0.171875 -0.703125q0 -0.90625 -0.578125 -1.546875q-0.5625 -0.640625 -1.328125 -0.640625q-0.859375 0 -1.46875 0.78125q-0.59375 0.765625 -0.625 2.3125zm9.6015625 -3.5l0 5.15625q0 0.953125 0.46875 1.46875q0.484375 0.515625 1.25 0.515625q0.921875 0 1.5625 -0.75q0.65625 -0.765625 0.65625 -1.890625l0 -2.90625q0 -0.40625 -0.28125 -0.625q-0.28125 -0.21875 -1.09375 -0.25l0 -0.578125l2.734375 -0.140625l0 6.390625q0 0.4375 0.234375 0.671875q0.25 0.234375 0.703125 0.234375l0.484375 0l0 0.5625l-2.609375 0.0625l-0.171875 -1.53125q-0.6875 0.8125 -1.390625 1.234375q-0.703125 0.40625 -1.4375 0.40625q-1.046875 0 -1.765625 -0.703125q-0.71875 -0.6875 -0.71875 -2.359375l0 -3.375q0 -0.453125 -0.359375 -0.6875q-0.25 -0.171875 -1.015625 -0.1875l0 -0.578125l2.75 -0.140625zm7.803467 0.140625l2.796875 -0.140625l0 3.15625q0.4375 -1.5625 1.0625 -2.359375q0.640625 -0.796875 1.578125 -0.796875q0.625 0 1.0 0.390625q0.375 0.390625 0.375 1.03125q0 0.515625 -0.25 0.8125q-0.25 0.296875 -0.640625 0.296875q-0.359375 0 -0.59375 -0.25q-0.234375 -0.25 -0.234375 -0.671875q0 -0.28125 0.140625 -0.515625q0.125 -0.21875 0.125 -0.265625q0 -0.125 -0.15625 -0.125q-0.34375 0 -0.78125 0.40625q-0.59375 0.546875 -0.921875 1.53125q-0.5 1.5 -0.5 2.40625l0 1.671875q0 0.28125 0.203125 0.4375q0.203125 0.140625 0.6875 0.140625l0.984375 0l0 0.625l-4.828125 0l0 -0.625l0.765625 0q0.390625 0 0.59375 -0.15625q0.203125 -0.15625 0.203125 -0.359375l0 -4.953125q0 -0.578125 -0.25 -0.828125q-0.234375 -0.265625 -0.6875 -0.265625l-0.671875 0l0 -0.59375zm16.03479 6.921875l0.296875 0.46875q-0.609375 0.625 -1.34375 0.625q-0.578125 0 -0.96875 -0.296875q-0.375 -0.3125 -0.671875 -1.09375q-0.78125 0.828125 -1.375 1.109375q-0.59375 0.28125 -1.4375 0.28125q-1.203125 0 -1.828125 -0.515625q-0.609375 -0.515625 -0.609375 -1.328125q0 -1.203125 1.421875 -2.0q1.421875 -0.8125 3.78125 -1.078125l0 -1.171875q0 -0.625 -0.515625 -1.078125q-0.5 -0.453125 -1.265625 -0.453125q-0.734375 0 -1.25 0.296875q-0.375 0.234375 -0.375 0.4375q0 0.125 0.203125 0.390625q0.234375 0.34375 0.234375 0.59375q0 0.375 -0.25 0.609375q-0.234375 0.234375 -0.625 0.234375q-0.40625 0 -0.6875 -0.28125q-0.28125 -0.28125 -0.28125 -0.71875q0 -0.828125 0.921875 -1.5q0.9375 -0.6875 2.4375 -0.6875q1.390625 0 2.109375 0.609375q0.734375 0.59375 0.734375 1.46875l0 4.25q0 0.5625 0.1875 0.828125q0.171875 0.265625 0.46875 0.265625q0.328125 0 0.6875 -0.265625zm-2.734375 -3.28125q-2.109375 0.296875 -2.984375 0.953125q-0.65625 0.5 -0.65625 1.40625q0 0.640625 0.34375 1.0q0.34375 0.359375 0.890625 0.359375q0.96875 0 1.6875 -0.734375q0.71875 -0.75 0.71875 -1.859375l0 -1.125zm7.074585 -8.28125l0 11.28125q0 0.234375 0.140625 0.359375q0.203125 0.15625 0.515625 0.15625l0.8125 0l0 0.625l-4.390625 0l0 -0.625l0.78125 0q0.375 0 0.5625 -0.171875q0.1875 -0.1875 0.1875 -0.515625l0 -9.46875q0 -0.421875 -0.21875 -0.609375q-0.3125 -0.265625 -0.765625 -0.265625l-0.6875 0l0 -0.625l3.0625 -0.140625zm7.4904175 0.140625l2.921875 0l7.40625 9.65625l0 -6.984375q0 -1.0625 -0.484375 -1.5625q-0.4375 -0.46875 -1.3125 -0.484375l0 -0.625l4.296875 0l0 0.625q-0.65625 0 -0.984375 0.1875q-0.3125 0.171875 -0.5625 0.65625q-0.234375 0.484375 -0.234375 1.0625l0 9.75l-0.78125 0l-7.671875 -10.03125l0 7.40625q0 1.0 0.5 1.5q0.515625 0.484375 1.578125 0.5l0 0.625l-4.671875 0l0 -0.625q0.875 -0.03125 1.390625 -0.578125q0.515625 -0.546875 0.515625 -1.328125l0 -8.328125l-0.140625 -0.140625q-0.421875 -0.453125 -0.59375 -0.53125q-0.234375 -0.125 -0.625 -0.125l-0.546875 0l0 -0.625zm21.27768 8.453125l-5.578125 0q0.046875 1.765625 0.671875 2.5q0.703125 0.828125 1.8125 0.828125q1.625 0 2.609375 -1.859375l0.546875 0.234375q-1.21875 2.359375 -3.5 2.359375q-1.5625 0 -2.640625 -1.125q-1.0625 -1.140625 -1.0625 -2.890625q0 -1.890625 1.046875 -3.0625q1.0625 -1.171875 2.59375 -1.171875q1.125 0 1.9375 0.59375q0.828125 0.578125 1.25 1.65625q0.296875 0.765625 0.3125 1.9375zm-5.578125 -0.59375l3.375 0q0.296875 0 0.453125 -0.203125q0.171875 -0.203125 0.171875 -0.703125q0 -0.90625 -0.578125 -1.546875q-0.5625 -0.640625 -1.328125 -0.640625q-0.859375 0 -1.46875 0.78125q-0.59375 0.765625 -0.625 2.3125zm8.9765625 -6.53125l0.5625 0l0 3.171875l2.515625 0l0 0.765625l-2.515625 0l0 4.984375q0 0.65625 0.3125 1.0q0.3125 0.34375 0.78125 0.34375q0.5625 0 0.953125 -0.515625q0.40625 -0.53125 0.46875 -1.734375l0.5625 0q-0.046875 1.546875 -0.703125 2.296875q-0.65625 0.75 -1.703125 0.75q-0.96875 0 -1.515625 -0.515625q-0.53125 -0.53125 -0.53125 -1.390625l0 -5.21875l-1.359375 0l0 -0.578125q0.921875 -0.15625 1.40625 -0.78125q0.71875 -0.90625 0.765625 -2.578125zm4.587158 3.171875l3.421875 0l0 0.578125l-0.453125 0q-0.328125 0 -0.46875 0.109375q-0.140625 0.09375 -0.140625 0.265625q0 0.1875 0.078125 0.390625l1.75 4.40625l1.515625 -4.1875q-0.3125 -0.65625 -0.5625 -0.8125q-0.234375 -0.171875 -0.84375 -0.171875l0 -0.578125l3.75 0l0 0.578125l-0.3125 0q-0.421875 0 -0.59375 0.109375q-0.15625 0.109375 -0.15625 0.3125q0 0.15625 0.078125 0.34375l1.765625 4.40625l1.40625 -3.90625q0.140625 -0.390625 0.140625 -0.671875q0 -0.265625 -0.21875 -0.421875q-0.21875 -0.15625 -0.8125 -0.171875l0 -0.578125l3.03125 0l0 0.578125q-0.5625 0.09375 -0.859375 0.359375q-0.296875 0.25 -0.484375 0.796875l-2.265625 6.28125l-0.484375 0l-2.1875 -5.453125l-1.953125 5.453125l-0.484375 0l-2.796875 -6.875q-0.125 -0.328125 -0.296875 -0.4375q-0.15625 -0.109375 -0.5625 -0.125l0 -0.578125zm17.259644 -0.234375q1.578125 0 2.640625 1.140625q1.0625 1.125 1.0625 2.984375q0 1.28125 -0.484375 2.1875q-0.46875 0.890625 -1.359375 1.421875q-0.875 0.515625 -1.890625 0.515625q-1.515625 0 -2.5625 -1.140625q-1.046875 -1.15625 -1.046875 -2.984375q0 -1.828125 1.046875 -2.96875q1.0625 -1.15625 2.59375 -1.15625zm0 0.59375q-0.921875 0 -1.53125 0.84375q-0.59375 0.84375 -0.59375 2.65625q0 1.859375 0.59375 2.71875q0.59375 0.84375 1.53125 0.84375q0.984375 0 1.578125 -0.84375q0.609375 -0.859375 0.609375 -2.8125q0 -1.796875 -0.59375 -2.59375q-0.59375 -0.8125 -1.59375 -0.8125zm4.8828125 -0.359375l2.796875 -0.140625l0 3.15625q0.4375 -1.5625 1.0625 -2.359375q0.640625 -0.796875 1.578125 -0.796875q0.625 0 1.0 0.390625q0.375 0.390625 0.375 1.03125q0 0.515625 -0.25 0.8125q-0.25 0.296875 -0.640625 0.296875q-0.359375 0 -0.59375 -0.25q-0.234375 -0.25 -0.234375 -0.671875q0 -0.28125 0.140625 -0.515625q0.125 -0.21875 0.125 -0.265625q0 -0.125 -0.15625 -0.125q-0.34375 0 -0.78125 0.40625q-0.59375 0.546875 -0.921875 1.53125q-0.5 1.5 -0.5 2.40625l0 1.671875q0 0.28125 0.203125 0.4375q0.203125 0.140625 0.6875 0.140625l0.984375 0l0 0.625l-4.828125 0l0 -0.625l0.765625 0q0.390625 0 0.59375 -0.15625q0.203125 -0.15625 0.203125 -0.359375l0 -4.953125q0 -0.578125 -0.25 -0.828125q-0.234375 -0.265625 -0.6875 -0.265625l-0.671875 0l0 -0.59375zm7.6754456 -4.5l2.96875 -0.140625l0 8.5l2.53125 -2.203125q0.375 -0.328125 0.375 -0.5625q0 -0.203125 -0.21875 -0.328125q-0.328125 -0.171875 -1.0625 -0.1875l0 -0.578125l4.15625 0l0 0.578125q-1.234375 0.078125 -1.890625 0.65625l-1.78125 1.578125l2.90625 3.984375q0.265625 0.359375 0.921875 0.359375l0.421875 0l0 0.625l-4.25 0l0 -0.625l0.421875 0q0.484375 0 0.640625 -0.078125q0.15625 -0.078125 0.15625 -0.203125q0 -0.109375 -0.078125 -0.234375l-2.109375 -2.953125l-1.140625 0.984375l0 1.96875q0 0.25 0.15625 0.359375q0.234375 0.15625 0.625 0.15625l0.546875 0l0 0.625l-4.171875 0l0 -0.625l0.671875 0q0.40625 0 0.609375 -0.171875q0.203125 -0.171875 0.203125 -0.46875l0 -9.59375q0 -0.375 -0.25 -0.546875q-0.34375 -0.25 -0.9375 -0.25l-0.421875 0l0 -0.625zm11.334137 9.34375q0.515625 1.4375 1.1875 2.0q0.671875 0.546875 1.640625 0.546875q0.90625 0 1.390625 -0.390625q0.484375 -0.390625 0.484375 -1.0q0 -0.359375 -0.1875 -0.609375q-0.171875 -0.265625 -0.484375 -0.390625q-0.3125 -0.125 -1.625 -0.375q-1.265625 -0.25 -1.765625 -0.515625q-0.5 -0.28125 -0.78125 -0.765625q-0.265625 -0.484375 -0.265625 -1.046875q0 -0.859375 0.5625 -1.5625q0.734375 -0.875 2.0625 -0.875q1.015625 0 1.890625 0.640625l0.546875 -0.59375l0.328125 0l0.21875 2.78125l-0.546875 0q-0.375 -1.1875 -1.0 -1.703125q-0.609375 -0.515625 -1.53125 -0.515625q-0.78125 0 -1.234375 0.390625q-0.453125 0.375 -0.453125 0.9375q0 0.484375 0.421875 0.8125q0.40625 0.328125 1.59375 0.515625q1.375 0.234375 1.796875 0.390625q0.671875 0.25 1.046875 0.78125q0.375 0.515625 0.375 1.265625q0 1.015625 -0.8125 1.734375q-0.8125 0.71875 -2.046875 0.71875q-1.15625 0 -2.140625 -0.765625l-0.609375 0.703125l-0.4375 0l-0.171875 -3.109375l0.546875 0z" fill-rule="nonzero"></path><path fill="#000000" fill-opacity="0.0" d="m153.77953 270.23358l0 0c0 -51.218964 76.591034 -92.74014 171.07088 -92.74014l0 0c94.47983 0 171.07086 41.52118 171.07086 92.74014l0 0c0 51.218994 -76.591034 92.74017 -171.07086 92.74017l0 0c-94.47984 0 -171.07088 -41.52118 -171.07088 -92.74017z" fill-rule="evenodd"></path><path stroke="#000000" stroke-width="2.0" stroke-linejoin="round" stroke-linecap="butt" d="m153.77953 270.23358l0 0c0 -51.218964 76.591034 -92.74014 171.07088 -92.74014l0 0c94.47983 0 171.07086 41.52118 171.07086 92.74014l0 0c0 51.218994 -76.591034 92.74017 -171.07086 92.74017l0 0c-94.47984 0 -171.07088 -41.52118 -171.07088 -92.74017z" fill-rule="evenodd"></path><path fill="#000000" d="m294.84976 190.34235l0.546875 0l4.421875 11.234375q0.265625 0.671875 1.078125 0.671875l0.390625 0l0 0.625l-4.90625 0l0 -0.625l0.390625 0q0.765625 0 1.078125 -0.15625q0.21875 -0.125 0.21875 -0.359375q0 -0.140625 -0.0625 -0.296875l-1.015625 -2.609375l-4.84375 0l-0.578125 1.484375q-0.21875 0.609375 -0.21875 0.953125q0 0.40625 0.375 0.703125q0.375 0.28125 1.09375 0.28125l0.421875 0l0 0.625l-4.453125 0l0 -0.625q0.71875 0 1.125 -0.3125q0.421875 -0.3125 0.765625 -1.171875l4.171875 -10.421875zm-0.25 2.359375l-2.1875 5.46875l4.34375 0l-2.15625 -5.46875zm7.2638245 2.390625l2.796875 -0.140625l0 3.15625q0.4375 -1.5625 1.0625 -2.359375q0.640625 -0.796875 1.578125 -0.796875q0.625 0 1.0 0.390625q0.375 0.390625 0.375 1.03125q0 0.515625 -0.25 0.8125q-0.25 0.296875 -0.640625 0.296875q-0.359375 0 -0.59375 -0.25q-0.234375 -0.25 -0.234375 -0.671875q0 -0.28125 0.140625 -0.515625q0.125 -0.21875 0.125 -0.265625q0 -0.125 -0.15625 -0.125q-0.34375 0 -0.78125 0.40625q-0.59375 0.546875 -0.921875 1.53125q-0.5 1.5 -0.5 2.40625l0 1.671875q0 0.28125 0.203125 0.4375q0.203125 0.140625 0.6875 0.140625l0.984375 0l0 0.625l-4.828125 0l0 -0.625l0.765625 0q0.390625 0 0.59375 -0.15625q0.203125 -0.15625 0.203125 -0.359375l0 -4.953125q0 -0.578125 -0.25 -0.828125q-0.234375 -0.265625 -0.6875 -0.265625l-0.671875 0l0 -0.59375zm9.847321 -3.171875l0.5625 0l0 3.171875l2.515625 0l0 0.765625l-2.515625 0l0 4.984375q0 0.65625 0.3125 1.0q0.3125 0.34375 0.78125 0.34375q0.5625 0 0.953125 -0.515625q0.40625 -0.53125 0.46875 -1.734375l0.5625 0q-0.046875 1.546875 -0.703125 2.296875q-0.65625 0.75 -1.703125 0.75q-0.96875 0 -1.515625 -0.515625q-0.53125 -0.53125 -0.53125 -1.390625l0 -5.21875l-1.359375 0l0 -0.578125q0.921875 -0.15625 1.40625 -0.78125q0.71875 -0.90625 0.765625 -2.578125zm6.712158 -1.46875q0.375 0 0.65625 0.28125q0.28125 0.28125 0.28125 0.671875q0 0.375 -0.28125 0.65625q-0.265625 0.265625 -0.65625 0.265625q-0.375 0 -0.65625 -0.28125q-0.28125 -0.28125 -0.28125 -0.65625q0 -0.375 0.28125 -0.65625q0.28125 -0.28125 0.65625 -0.28125zm-2.15625 4.640625l3.09375 -0.09375l0 6.703125q0 0.265625 0.125 0.390625q0.1875 0.15625 0.484375 0.15625l0.875 0l0 0.625l-4.40625 0l0 -0.625l0.8125 0q0.375 0 0.53125 -0.171875q0.171875 -0.1875 0.171875 -0.515625l0 -4.90625q0 -0.46875 -0.265625 -0.703125q-0.265625 -0.234375 -0.78125 -0.234375l-0.640625 0l0 -0.625zm8.269867 0l1.9375 0l0 0.71875l-1.9375 0l0 5.6875q0 0.390625 0.171875 0.546875q0.25 0.203125 0.703125 0.203125l1.0625 0l0 0.625l-4.765625 0l0 -0.625l0.65625 0q0.4375 0 0.609375 -0.140625q0.171875 -0.15625 0.171875 -0.46875l0 -5.828125l-1.34375 0l0 -0.71875l1.34375 0l0 -0.578125q0 -2.0625 0.859375 -3.140625q0.859375 -1.078125 2.125 -1.078125q0.9375 0 1.453125 0.453125q0.53125 0.453125 0.53125 1.1875q0 0.484375 -0.25 0.765625q-0.25 0.28125 -0.640625 0.28125q-0.359375 0 -0.59375 -0.21875q-0.21875 -0.234375 -0.21875 -0.578125q0 -0.390625 0.296875 -0.640625q0.25 -0.1875 0.25 -0.296875q0 -0.140625 -0.1875 -0.25q-0.1875 -0.125 -0.5625 -0.125q-0.703125 0 -1.1875 0.640625q-0.484375 0.625 -0.484375 1.859375l0 1.71875zm5.1141357 -4.640625q0.375 0 0.65625 0.28125q0.28125 0.28125 0.28125 0.671875q0 0.375 -0.28125 0.65625q-0.265625 0.265625 -0.65625 0.265625q-0.375 0 -0.65625 -0.28125q-0.28125 -0.28125 -0.28125 -0.65625q0 -0.375 0.28125 -0.65625q0.28125 -0.28125 0.65625 -0.28125zm-2.15625 4.640625l3.09375 -0.09375l0 6.703125q0 0.265625 0.125 0.390625q0.1875 0.15625 0.484375 0.15625l0.875 0l0 0.625l-4.40625 0l0 -0.625l0.8125 0q0.375 0 0.53125 -0.171875q0.171875 -0.1875 0.171875 -0.515625l0 -4.90625q0 -0.46875 -0.265625 -0.703125q-0.265625 -0.234375 -0.78125 -0.234375l-0.640625 0l0 -0.625zm11.551086 5.46875l0.546875 0.15625q-0.65625 2.390625 -2.859375 2.390625q-1.625 0 -2.65625 -1.0625q-1.03125 -1.078125 -1.03125 -2.859375q0 -2.0625 1.125 -3.1875q1.140625 -1.140625 2.671875 -1.140625q1.140625 0 1.890625 0.640625q0.75 0.625 0.75 1.390625q0 0.46875 -0.28125 0.78125q-0.28125 0.296875 -0.65625 0.296875q-0.375 0 -0.640625 -0.25q-0.25 -0.265625 -0.25 -0.625q0 -0.375 0.28125 -0.703125q0.125 -0.15625 0.125 -0.25q0 -0.234375 -0.328125 -0.453125q-0.3125 -0.234375 -0.875 -0.234375q-1.015625 0 -1.53125 0.734375q-0.75 1.0625 -0.75 2.8125q0 1.671875 0.65625 2.53125q0.671875 0.859375 1.703125 0.859375q1.421875 0 2.109375 -1.828125zm3.7535706 -10.109375q0.375 0 0.65625 0.28125q0.28125 0.28125 0.28125 0.671875q0 0.375 -0.28125 0.65625q-0.265625 0.265625 -0.65625 0.265625q-0.375 0 -0.65625 -0.28125q-0.28125 -0.28125 -0.28125 -0.65625q0 -0.375 0.28125 -0.65625q0.28125 -0.28125 0.65625 -0.28125zm-2.15625 4.640625l3.09375 -0.09375l0 6.703125q0 0.265625 0.125 0.390625q0.1875 0.15625 0.484375 0.15625l0.875 0l0 0.625l-4.40625 0l0 -0.625l0.8125 0q0.375 0 0.53125 -0.171875q0.171875 -0.1875 0.171875 -0.515625l0 -4.90625q0 -0.46875 -0.265625 -0.703125q-0.265625 -0.234375 -0.78125 -0.234375l-0.640625 0l0 -0.625zm13.832336 6.921875l0.296875 0.46875q-0.609375 0.625 -1.34375 0.625q-0.578125 0 -0.96875 -0.296875q-0.375 -0.3125 -0.671875 -1.09375q-0.78125 0.828125 -1.375 1.109375q-0.59375 0.28125 -1.4375 0.28125q-1.203125 0 -1.828125 -0.515625q-0.609375 -0.515625 -0.609375 -1.328125q0 -1.203125 1.421875 -2.0q1.421875 -0.8125 3.78125 -1.078125l0 -1.171875q0 -0.625 -0.515625 -1.078125q-0.5 -0.453125 -1.265625 -0.453125q-0.734375 0 -1.25 0.296875q-0.375 0.234375 -0.375 0.4375q0 0.125 0.203125 0.390625q0.234375 0.34375 0.234375 0.59375q0 0.375 -0.25 0.609375q-0.234375 0.234375 -0.625 0.234375q-0.40625 0 -0.6875 -0.28125q-0.28125 -0.28125 -0.28125 -0.71875q0 -0.828125 0.921875 -1.5q0.9375 -0.6875 2.4375 -0.6875q1.390625 0 2.109375 0.609375q0.734375 0.59375 0.734375 1.46875l0 4.25q0 0.5625 0.1875 0.828125q0.171875 0.265625 0.46875 0.265625q0.328125 0 0.6875 -0.265625zm-2.734375 -3.28125q-2.109375 0.296875 -2.984375 0.953125q-0.65625 0.5 -0.65625 1.40625q0 0.640625 0.34375 1.0q0.34375 0.359375 0.890625 0.359375q0.96875 0 1.6875 -0.734375q0.71875 -0.75 0.71875 -1.859375l0 -1.125zm7.074585 -8.28125l0 11.28125q0 0.234375 0.140625 0.359375q0.203125 0.15625 0.515625 0.15625l0.8125 0l0 0.625l-4.390625 0l0 -0.625l0.78125 0q0.375 0 0.5625 -0.171875q0.1875 -0.1875 0.1875 -0.515625l0 -9.46875q0 -0.421875 -0.21875 -0.609375q-0.3125 -0.265625 -0.765625 -0.265625l-0.6875 0l0 -0.625l3.0625 -0.140625z" fill-rule="nonzero"></path><path fill="#000000" d="m256.24097 211.59235l2.921875 0l7.40625 9.65625l0 -6.984375q0 -1.0625 -0.484375 -1.5625q-0.4375 -0.46875 -1.3125 -0.484375l0 -0.625l4.296875 0l0 0.625q-0.65625 0 -0.984375 0.1875q-0.3125 0.171875 -0.5625 0.65625q-0.234375 0.484375 -0.234375 1.0625l0 9.75l-0.78125 0l-7.671875 -10.03125l0 7.40625q0 1.0 0.5 1.5q0.515625 0.484375 1.578125 0.5l0 0.625l-4.671875 0l0 -0.625q0.875 -0.03125 1.390625 -0.578125q0.515625 -0.546875 0.515625 -1.328125l0 -8.328125l-0.140625 -0.140625q-0.421875 -0.453125 -0.59375 -0.53125q-0.234375 -0.125 -0.625 -0.125l-0.546875 0l0 -0.625zm21.27768 8.453125l-5.578125 0q0.046875 1.765625 0.671875 2.5q0.703125 0.828125 1.8125 0.828125q1.625 0 2.609375 -1.859375l0.546875 0.234375q-1.21875 2.359375 -3.5 2.359375q-1.5625 0 -2.640625 -1.125q-1.0625 -1.140625 -1.0625 -2.890625q0 -1.890625 1.046875 -3.0625q1.0625 -1.171875 2.59375 -1.171875q1.125 0 1.9375 0.59375q0.828125 0.578125 1.25 1.65625q0.296875 0.765625 0.3125 1.9375zm-5.578125 -0.59375l3.375 0q0.296875 0 0.453125 -0.203125q0.171875 -0.203125 0.171875 -0.703125q0 -0.90625 -0.578125 -1.546875q-0.5625 -0.640625 -1.328125 -0.640625q-0.859375 0 -1.46875 0.78125q-0.59375 0.765625 -0.625 2.3125zm9.6015625 -3.5l0 5.15625q0 0.953125 0.46875 1.46875q0.484375 0.515625 1.25 0.515625q0.921875 0 1.5625 -0.75q0.65625 -0.765625 0.65625 -1.890625l0 -2.90625q0 -0.40625 -0.28125 -0.625q-0.28125 -0.21875 -1.09375 -0.25l0 -0.578125l2.734375 -0.140625l0 6.390625q0 0.4375 0.234375 0.671875q0.25 0.234375 0.703125 0.234375l0.484375 0l0 0.5625l-2.609375 0.0625l-0.171875 -1.53125q-0.6875 0.8125 -1.390625 1.234375q-0.703125 0.40625 -1.4375 0.40625q-1.046875 0 -1.765625 -0.703125q-0.71875 -0.6875 -0.71875 -2.359375l0 -3.375q0 -0.453125 -0.359375 -0.6875q-0.25 -0.171875 -1.015625 -0.1875l0 -0.578125l2.75 -0.140625zm7.803467 0.140625l2.796875 -0.140625l0 3.15625q0.4375 -1.5625 1.0625 -2.359375q0.640625 -0.796875 1.578125 -0.796875q0.625 0 1.0 0.390625q0.375 0.390625 0.375 1.03125q0 0.515625 -0.25 0.8125q-0.25 0.296875 -0.640625 0.296875q-0.359375 0 -0.59375 -0.25q-0.234375 -0.25 -0.234375 -0.671875q0 -0.28125 0.140625 -0.515625q0.125 -0.21875 0.125 -0.265625q0 -0.125 -0.15625 -0.125q-0.34375 0 -0.78125 0.40625q-0.59375 0.546875 -0.921875 1.53125q-0.5 1.5 -0.5 2.40625l0 1.671875q0 0.28125 0.203125 0.4375q0.203125 0.140625 0.6875 0.140625l0.984375 0l0 0.625l-4.828125 0l0 -0.625l0.765625 0q0.390625 0 0.59375 -0.15625q0.203125 -0.15625 0.203125 -0.359375l0 -4.953125q0 -0.578125 -0.25 -0.828125q-0.234375 -0.265625 -0.6875 -0.265625l-0.671875 0l0 -0.59375zm16.03479 6.921875l0.296875 0.46875q-0.609375 0.625 -1.34375 0.625q-0.578125 0 -0.96875 -0.296875q-0.375 -0.3125 -0.671875 -1.09375q-0.78125 0.828125 -1.375 1.109375q-0.59375 0.28125 -1.4375 0.28125q-1.203125 0 -1.828125 -0.515625q-0.609375 -0.515625 -0.609375 -1.328125q0 -1.203125 1.421875 -2.0q1.421875 -0.8125 3.78125 -1.078125l0 -1.171875q0 -0.625 -0.515625 -1.078125q-0.5 -0.453125 -1.265625 -0.453125q-0.734375 0 -1.25 0.296875q-0.375 0.234375 -0.375 0.4375q0 0.125 0.203125 0.390625q0.234375 0.34375 0.234375 0.59375q0 0.375 -0.25 0.609375q-0.234375 0.234375 -0.625 0.234375q-0.40625 0 -0.6875 -0.28125q-0.28125 -0.28125 -0.28125 -0.71875q0 -0.828125 0.921875 -1.5q0.9375 -0.6875 2.4375 -0.6875q1.390625 0 2.109375 0.609375q0.734375 0.59375 0.734375 1.46875l0 4.25q0 0.5625 0.1875 0.828125q0.171875 0.265625 0.46875 0.265625q0.328125 0 0.6875 -0.265625zm-2.734375 -3.28125q-2.109375 0.296875 -2.984375 0.953125q-0.65625 0.5 -0.65625 1.40625q0 0.640625 0.34375 1.0q0.34375 0.359375 0.890625 0.359375q0.96875 0 1.6875 -0.734375q0.71875 -0.75 0.71875 -1.859375l0 -1.125zm7.074585 -8.28125l0 11.28125q0 0.234375 0.140625 0.359375q0.203125 0.15625 0.515625 0.15625l0.8125 0l0 0.625l-4.390625 0l0 -0.625l0.78125 0q0.375 0 0.5625 -0.171875q0.1875 -0.1875 0.1875 -0.515625l0 -9.46875q0 -0.421875 -0.21875 -0.609375q-0.3125 -0.265625 -0.765625 -0.265625l-0.6875 0l0 -0.625l3.0625 -0.140625zm7.4904175 0.140625l2.921875 0l7.40625 9.65625l0 -6.984375q0 -1.0625 -0.484375 -1.5625q-0.4375 -0.46875 -1.3125 -0.484375l0 -0.625l4.296875 0l0 0.625q-0.65625 0 -0.984375 0.1875q-0.3125 0.171875 -0.5625 0.65625q-0.234375 0.484375 -0.234375 1.0625l0 9.75l-0.78125 0l-7.671875 -10.03125l0 7.40625q0 1.0 0.5 1.5q0.515625 0.484375 1.578125 0.5l0 0.625l-4.671875 0l0 -0.625q0.875 -0.03125 1.390625 -0.578125q0.515625 -0.546875 0.515625 -1.328125l0 -8.328125l-0.140625 -0.140625q-0.421875 -0.453125 -0.59375 -0.53125q-0.234375 -0.125 -0.625 -0.125l-0.546875 0l0 -0.625zm21.27768 8.453125l-5.578125 0q0.046875 1.765625 0.671875 2.5q0.703125 0.828125 1.8125 0.828125q1.625 0 2.609375 -1.859375l0.546875 0.234375q-1.21875 2.359375 -3.5 2.359375q-1.5625 0 -2.640625 -1.125q-1.0625 -1.140625 -1.0625 -2.890625q0 -1.890625 1.046875 -3.0625q1.0625 -1.171875 2.59375 -1.171875q1.125 0 1.9375 0.59375q0.828125 0.578125 1.25 1.65625q0.296875 0.765625 0.3125 1.9375zm-5.578125 -0.59375l3.375 0q0.296875 0 0.453125 -0.203125q0.171875 -0.203125 0.171875 -0.703125q0 -0.90625 -0.578125 -1.546875q-0.5625 -0.640625 -1.328125 -0.640625q-0.859375 0 -1.46875 0.78125q-0.59375 0.765625 -0.625 2.3125zm8.9765625 -6.53125l0.5625 0l0 3.171875l2.515625 0l0 0.765625l-2.515625 0l0 4.984375q0 0.65625 0.3125 1.0q0.3125 0.34375 0.78125 0.34375q0.5625 0 0.953125 -0.515625q0.40625 -0.53125 0.46875 -1.734375l0.5625 0q-0.046875 1.546875 -0.703125 2.296875q-0.65625 0.75 -1.703125 0.75q-0.96875 0 -1.515625 -0.515625q-0.53125 -0.53125 -0.53125 -1.390625l0 -5.21875l-1.359375 0l0 -0.578125q0.921875 -0.15625 1.40625 -0.78125q0.71875 -0.90625 0.765625 -2.578125zm4.587158 3.171875l3.421875 0l0 0.578125l-0.453125 0q-0.328125 0 -0.46875 0.109375q-0.140625 0.09375 -0.140625 0.265625q0 0.1875 0.078125 0.390625l1.75 4.40625l1.515625 -4.1875q-0.3125 -0.65625 -0.5625 -0.8125q-0.234375 -0.171875 -0.84375 -0.171875l0 -0.578125l3.75 0l0 0.578125l-0.3125 0q-0.421875 0 -0.59375 0.109375q-0.15625 0.109375 -0.15625 0.3125q0 0.15625 0.078125 0.34375l1.765625 4.40625l1.40625 -3.90625q0.140625 -0.390625 0.140625 -0.671875q0 -0.265625 -0.21875 -0.421875q-0.21875 -0.15625 -0.8125 -0.171875l0 -0.578125l3.03125 0l0 0.578125q-0.5625 0.09375 -0.859375 0.359375q-0.296875 0.25 -0.484375 0.796875l-2.265625 6.28125l-0.484375 0l-2.1875 -5.453125l-1.953125 5.453125l-0.484375 0l-2.796875 -6.875q-0.125 -0.328125 -0.296875 -0.4375q-0.15625 -0.109375 -0.5625 -0.125l0 -0.578125zm17.259644 -0.234375q1.578125 0 2.640625 1.140625q1.0625 1.125 1.0625 2.984375q0 1.28125 -0.484375 2.1875q-0.46875 0.890625 -1.359375 1.421875q-0.875 0.515625 -1.890625 0.515625q-1.515625 0 -2.5625 -1.140625q-1.046875 -1.15625 -1.046875 -2.984375q0 -1.828125 1.046875 -2.96875q1.0625 -1.15625 2.59375 -1.15625zm0 0.59375q-0.921875 0 -1.53125 0.84375q-0.59375 0.84375 -0.59375 2.65625q0 1.859375 0.59375 2.71875q0.59375 0.84375 1.53125 0.84375q0.984375 0 1.578125 -0.84375q0.609375 -0.859375 0.609375 -2.8125q0 -1.796875 -0.59375 -2.59375q-0.59375 -0.8125 -1.59375 -0.8125zm4.8828125 -0.359375l2.796875 -0.140625l0 3.15625q0.4375 -1.5625 1.0625 -2.359375q0.640625 -0.796875 1.578125 -0.796875q0.625 0 1.0 0.390625q0.375 0.390625 0.375 1.03125q0 0.515625 -0.25 0.8125q-0.25 0.296875 -0.640625 0.296875q-0.359375 0 -0.59375 -0.25q-0.234375 -0.25 -0.234375 -0.671875q0 -0.28125 0.140625 -0.515625q0.125 -0.21875 0.125 -0.265625q0 -0.125 -0.15625 -0.125q-0.34375 0 -0.78125 0.40625q-0.59375 0.546875 -0.921875 1.53125q-0.5 1.5 -0.5 2.40625l0 1.671875q0 0.28125 0.203125 0.4375q0.203125 0.140625 0.6875 0.140625l0.984375 0l0 0.625l-4.828125 0l0 -0.625l0.765625 0q0.390625 0 0.59375 -0.15625q0.203125 -0.15625 0.203125 -0.359375l0 -4.953125q0 -0.578125 -0.25 -0.828125q-0.234375 -0.265625 -0.6875 -0.265625l-0.671875 0l0 -0.59375zm7.675415 -4.5l2.96875 -0.140625l0 8.5l2.53125 -2.203125q0.375 -0.328125 0.375 -0.5625q0 -0.203125 -0.21875 -0.328125q-0.328125 -0.171875 -1.0625 -0.1875l0 -0.578125l4.15625 0l0 0.578125q-1.234375 0.078125 -1.890625 0.65625l-1.78125 1.578125l2.90625 3.984375q0.265625 0.359375 0.921875 0.359375l0.421875 0l0 0.625l-4.25 0l0 -0.625l0.421875 0q0.484375 0 0.640625 -0.078125q0.15625 -0.078125 0.15625 -0.203125q0 -0.109375 -0.078125 -0.234375l-2.109375 -2.953125l-1.140625 0.984375l0 1.96875q0 0.25 0.15625 0.359375q0.234375 0.15625 0.625 0.15625l0.546875 0l0 0.625l-4.171875 0l0 -0.625l0.671875 0q0.40625 0 0.609375 -0.171875q0.203125 -0.171875 0.203125 -0.46875l0 -9.59375q0 -0.375 -0.25 -0.546875q-0.34375 -0.25 -0.9375 -0.25l-0.421875 0l0 -0.625zm11.3341675 9.34375q0.515625 1.4375 1.1875 2.0q0.671875 0.546875 1.640625 0.546875q0.90625 0 1.390625 -0.390625q0.484375 -0.390625 0.484375 -1.0q0 -0.359375 -0.1875 -0.609375q-0.171875 -0.265625 -0.484375 -0.390625q-0.3125 -0.125 -1.625 -0.375q-1.265625 -0.25 -1.765625 -0.515625q-0.5 -0.28125 -0.78125 -0.765625q-0.265625 -0.484375 -0.265625 -1.046875q0 -0.859375 0.5625 -1.5625q0.734375 -0.875 2.0625 -0.875q1.015625 0 1.890625 0.640625l0.546875 -0.59375l0.328125 0l0.21875 2.78125l-0.546875 0q-0.375 -1.1875 -1.0 -1.703125q-0.609375 -0.515625 -1.53125 -0.515625q-0.78125 0 -1.234375 0.390625q-0.453125 0.375 -0.453125 0.9375q0 0.484375 0.421875 0.8125q0.40625 0.328125 1.59375 0.515625q1.375 0.234375 1.796875 0.390625q0.671875 0.25 1.046875 0.78125q0.375 0.515625 0.375 1.265625q0 1.015625 -0.8125 1.734375q-0.8125 0.71875 -2.046875 0.71875q-1.15625 0 -2.140625 -0.765625l-0.609375 0.703125l-0.4375 0l-0.171875 -3.109375l0.546875 0z" fill-rule="nonzero"></path><path fill="#000000" fill-opacity="0.0" d="m102.74016 242.5643l0 0c0 -66.500305 99.44214 -120.40945 222.11024 -120.40945l0 0c122.66809 0 222.11023 53.90914 222.11023 120.40945l0 0c0 66.500305 -99.44214 120.409454 -222.11023 120.409454l0 0c-122.668106 0 -222.11024 -53.90915 -222.11024 -120.409454z" fill-rule="evenodd"></path><path stroke="#000000" stroke-width="2.0" stroke-linejoin="round" stroke-linecap="butt" d="m102.74016 242.5643l0 0c0 -66.500305 99.44214 -120.40945 222.11024 -120.40945l0 0c122.66809 0 222.11023 53.90914 222.11023 120.40945l0 0c0 66.500305 -99.44214 120.409454 -222.11023 120.409454l0 0c-122.668106 0 -222.11024 -53.90915 -222.11024 -120.409454z" fill-rule="evenodd"></path><path fill="#000000" d="m251.49553 152.42305l4.09375 0l3.6562347 9.703125l3.375 -9.703125l4.1875 0l0 0.625l-1.015625 0q-0.546875 0 -0.734375 0.15625q-0.1875 0.15625 -0.1875 0.546875l0 9.71875q0 0.296875 0.21875 0.453125q0.234375 0.15625 0.78125 0.15625l0.9375 0l0 0.625l-5.609375 0l0 -0.625l1.046875 0q0.453125 0 0.65625 -0.171875q0.21875 -0.171875 0.21875 -0.4375l0 -10.421875l-4.046875 11.65625l-0.578125 0l-4.3593597 -11.609375l0 8.921875q0 0.796875 0.203125 1.203125q0.203125 0.390625 0.5625 0.609375q0.375 0.203125 1.2343597 0.25l0 0.625l-4.6406097 0l0 -0.625q1.140625 -0.078125 1.546875 -0.484375q0.40625 -0.421875 0.40625 -1.46875l0 -8.46875q0 -0.3125 -0.203125 -0.453125q-0.1875 -0.15625 -0.703125 -0.15625l-1.046875 0l0 -0.625zm24.855118 11.421875l0.296875 0.46875q-0.609375 0.625 -1.34375 0.625q-0.578125 0 -0.96875 -0.296875q-0.375 -0.3125 -0.671875 -1.09375q-0.78125 0.828125 -1.375 1.109375q-0.59375 0.28125 -1.4375 0.28125q-1.203125 0 -1.828125 -0.515625q-0.609375 -0.515625 -0.609375 -1.328125q0 -1.203125 1.421875 -2.0q1.421875 -0.8125 3.78125 -1.078125l0 -1.171875q0 -0.625 -0.515625 -1.078125q-0.5 -0.453125 -1.265625 -0.453125q-0.734375 0 -1.25 0.296875q-0.375 0.234375 -0.375 0.4375q0 0.125 0.203125 0.390625q0.234375 0.34375 0.234375 0.59375q0 0.375 -0.25 0.609375q-0.234375 0.234375 -0.625 0.234375q-0.40625 0 -0.6875 -0.28125q-0.28125 -0.28125 -0.28125 -0.71875q0 -0.828125 0.921875 -1.5q0.9375 -0.6875 2.4375 -0.6875q1.390625 0 2.109375 0.609375q0.734375 0.59375 0.734375 1.46875l0 4.25q0 0.5625 0.1875 0.828125q0.171875 0.265625 0.46875 0.265625q0.328125 0 0.6875 -0.265625zm-2.734375 -3.28125q-2.109375 0.296875 -2.984375 0.953125q-0.65625 0.5 -0.65625 1.40625q0 0.640625 0.34375 1.0q0.34375 0.359375 0.890625 0.359375q0.96875 0 1.6875 -0.734375q0.71875 -0.75 0.71875 -1.859375l0 -1.125zm10.09021 1.828125l0.546875 0.15625q-0.65625 2.390625 -2.859375 2.390625q-1.625 0 -2.65625 -1.0625q-1.03125 -1.078125 -1.03125 -2.859375q0 -2.0625 1.125 -3.1875q1.140625 -1.140625 2.671875 -1.140625q1.140625 0 1.890625 0.640625q0.75 0.625 0.75 1.390625q0 0.46875 -0.28125 0.78125q-0.28125 0.296875 -0.65625 0.296875q-0.375 0 -0.640625 -0.25q-0.25 -0.265625 -0.25 -0.625q0 -0.375 0.28125 -0.703125q0.125 -0.15625 0.125 -0.25q0 -0.234375 -0.328125 -0.453125q-0.3125 -0.234375 -0.875 -0.234375q-1.015625 0 -1.53125 0.734375q-0.75 1.0625 -0.75 2.8125q0 1.671875 0.65625 2.53125q0.671875 0.859375 1.703125 0.859375q1.421875 0 2.109375 -1.828125zm1.550415 -9.96875l2.9375 -0.140625l0 6.0q0.625 -0.796875 1.328125 -1.1875q0.703125 -0.40625 1.5 -0.40625q0.734375 0 1.34375 0.359375q0.453125 0.28125 0.78125 1.0q0.328125 0.703125 0.328125 1.65625l0 3.703125q0 0.34375 0.1875 0.515625q0.1875 0.15625 0.578125 0.15625l0.65625 0l0 0.625l-4.203125 0l0 -0.625l0.46875 0q0.53125 0 0.734375 -0.171875q0.203125 -0.171875 0.203125 -0.5l0 -3.703125q0 -0.96875 -0.46875 -1.515625q-0.46875 -0.546875 -1.203125 -0.546875q-0.5625 0 -1.0625 0.3125q-0.484375 0.3125 -0.828125 0.9375q-0.34375 0.625 -0.34375 1.328125l0 3.09375q0 0.421875 0.171875 0.59375q0.1875 0.171875 0.578125 0.171875l0.671875 0l0 0.625l-4.109375 0l0 -0.625l0.46875 0q0.46875 0 0.65625 -0.1875q0.203125 -0.1875 0.203125 -0.578125l0 -9.28125q0 -0.5 -0.265625 -0.734375q-0.25 -0.25 -0.75 -0.25l-0.5625 0l0 -0.625zm12.787842 -0.140625q0.375 0 0.65625 0.28125q0.28125 0.28125 0.28125 0.671875q0 0.375 -0.28125 0.65625q-0.265625 0.265625 -0.65625 0.265625q-0.375 0 -0.65625 -0.28125q-0.28125 -0.28125 -0.28125 -0.65625q0 -0.375 0.28125 -0.65625q0.28125 -0.28125 0.65625 -0.28125zm-2.15625 4.640625l3.09375 -0.09375l0 6.703125q0 0.265625 0.125 0.390625q0.1875 0.15625 0.484375 0.15625l0.875 0l0 0.625l-4.40625 0l0 -0.625l0.8125 0q0.375 0 0.53125 -0.171875q0.171875 -0.1875 0.171875 -0.515625l0 -4.90625q0 -0.46875 -0.265625 -0.703125q-0.265625 -0.234375 -0.78125 -0.234375l-0.640625 0l0 -0.625zm5.613617 0l2.578125 -0.15625q0.15625 0.734375 0.234375 1.71875q0.515625 -0.859375 1.21875 -1.28125q0.71875 -0.421875 1.609375 -0.421875q0.78125 0 1.296875 0.3125q0.53125 0.296875 0.84375 0.953125q0.3125 0.65625 0.3125 1.46875l0 3.78125q0 0.421875 0.1875 0.609375q0.203125 0.171875 0.640625 0.171875l0.546875 0l0 0.625l-4.09375 0l0 -0.625l0.390625 0q0.546875 0 0.765625 -0.171875q0.21875 -0.171875 0.21875 -0.515625l0 -3.34375q0 -1.078125 -0.34375 -1.609375q-0.453125 -0.734375 -1.40625 -0.734375q-0.9375 0 -1.5625 0.75q-0.625 0.75 -0.625 1.96875l0 2.875q0 0.421875 0.1875 0.609375q0.203125 0.171875 0.640625 0.171875l0.546875 0l0 0.625l-4.125 0l0 -0.625l0.546875 0q0.40625 0 0.609375 -0.15625q0.21875 -0.171875 0.21875 -0.421875l0 -5.015625q0 -0.5 -0.265625 -0.75q-0.265625 -0.265625 -0.78125 -0.265625l-0.390625 0l0 -0.546875zm17.881592 3.953125l-5.578125 0q0.046875 1.765625 0.671875 2.5q0.703125 0.828125 1.8125 0.828125q1.625 0 2.609375 -1.859375l0.546875 0.234375q-1.21875 2.359375 -3.5 2.359375q-1.5625 0 -2.640625 -1.125q-1.0625 -1.140625 -1.0625 -2.890625q0 -1.890625 1.046875 -3.0625q1.0625 -1.171875 2.59375 -1.171875q1.125 0 1.9375 0.59375q0.828125 0.578125 1.25 1.65625q0.296875 0.765625 0.3125 1.9375zm-5.578125 -0.59375l3.375 0q0.296875 0 0.453125 -0.203125q0.171875 -0.203125 0.171875 -0.703125q0 -0.90625 -0.578125 -1.546875q-0.5625 -0.640625 -1.328125 -0.640625q-0.859375 0 -1.46875 0.78125q-0.59375 0.765625 -0.625 2.3125zm11.728363 -7.859375l5.6875 0l0 0.625l-1.359375 0q-0.328125 0 -0.484375 0.171875q-0.15625 0.171875 -0.15625 0.53125l0 9.6875q0 0.359375 0.1875 0.5q0.203125 0.140625 0.796875 0.140625l1.734375 0q1.375 0 2.25 -0.90625q0.875 -0.921875 1.265625 -3.1875l0.59375 0l-0.28125 4.71875l-10.234375 0l0 -0.625l1.0 0q0.515625 0 0.71875 -0.1875q0.21875 -0.203125 0.21875 -0.625l0 -9.59375q0 -0.3125 -0.1875 -0.46875q-0.171875 -0.15625 -0.5 -0.15625l-1.25 0l0 -0.625zm18.885864 8.453125l-5.578125 0q0.046875 1.765625 0.671875 2.5q0.703125 0.828125 1.8125 0.828125q1.625 0 2.609375 -1.859375l0.546875 0.234375q-1.21875 2.359375 -3.5 2.359375q-1.5625 0 -2.640625 -1.125q-1.0625 -1.140625 -1.0625 -2.890625q0 -1.890625 1.046875 -3.0625q1.0625 -1.171875 2.59375 -1.171875q1.125 0 1.9375 0.59375q0.828125 0.578125 1.25 1.65625q0.296875 0.765625 0.3125 1.9375zm-5.578125 -0.59375l3.375 0q0.296875 0 0.453125 -0.203125q0.171875 -0.203125 0.171875 -0.703125q0 -0.90625 -0.578125 -1.546875q-0.5625 -0.640625 -1.328125 -0.640625q-0.859375 0 -1.46875 0.78125q-0.59375 0.765625 -0.625 2.3125zm15.1640625 3.5625l0.296875 0.46875q-0.609375 0.625 -1.34375 0.625q-0.578125 0 -0.96875 -0.296875q-0.375 -0.3125 -0.671875 -1.09375q-0.78125 0.828125 -1.375 1.109375q-0.59375 0.28125 -1.4375 0.28125q-1.203125 0 -1.828125 -0.515625q-0.609375 -0.515625 -0.609375 -1.328125q0 -1.203125 1.421875 -2.0q1.421875 -0.8125 3.78125 -1.078125l0 -1.171875q0 -0.625 -0.515625 -1.078125q-0.5 -0.453125 -1.265625 -0.453125q-0.734375 0 -1.25 0.296875q-0.375 0.234375 -0.375 0.4375q0 0.125 0.203125 0.390625q0.234375 0.34375 0.234375 0.59375q0 0.375 -0.25 0.609375q-0.234375 0.234375 -0.625 0.234375q-0.40625 0 -0.6875 -0.28125q-0.28125 -0.28125 -0.28125 -0.71875q0 -0.828125 0.921875 -1.5q0.9375 -0.6875 2.4375 -0.6875q1.390625 0 2.109375 0.609375q0.734375 0.59375 0.734375 1.46875l0 4.25q0 0.5625 0.1875 0.828125q0.171875 0.265625 0.46875 0.265625q0.328125 0 0.6875 -0.265625zm-2.734375 -3.28125q-2.109375 0.296875 -2.984375 0.953125q-0.65625 0.5 -0.65625 1.40625q0 0.640625 0.34375 1.0q0.34375 0.359375 0.890625 0.359375q0.96875 0 1.6875 -0.734375q0.71875 -0.75 0.71875 -1.859375l0 -1.125zm4.02771 -3.640625l2.796875 -0.140625l0 3.15625q0.4375 -1.5625 1.0625 -2.359375q0.640625 -0.796875 1.578125 -0.796875q0.625 0 1.0 0.390625q0.375 0.390625 0.375 1.03125q0 0.515625 -0.25 0.8125q-0.25 0.296875 -0.640625 0.296875q-0.359375 0 -0.59375 -0.25q-0.234375 -0.25 -0.234375 -0.671875q0 -0.28125 0.140625 -0.515625q0.125 -0.21875 0.125 -0.265625q0 -0.125 -0.15625 -0.125q-0.34375 0 -0.78125 0.40625q-0.59375 0.546875 -0.921875 1.53125q-0.5 1.5 -0.5 2.40625l0 1.671875q0 0.28125 0.203125 0.4375q0.203125 0.140625 0.6875 0.140625l0.984375 0l0 0.625l-4.828125 0l0 -0.625l0.765625 0q0.390625 0 0.59375 -0.15625q0.203125 -0.15625 0.203125 -0.359375l0 -4.953125q0 -0.578125 -0.25 -0.828125q-0.234375 -0.265625 -0.6875 -0.265625l-0.671875 0l0 -0.59375zm7.81604 0l2.578125 -0.15625q0.15625 0.734375 0.234375 1.71875q0.515625 -0.859375 1.21875 -1.28125q0.71875 -0.421875 1.609375 -0.421875q0.78125 0 1.296875 0.3125q0.53125 0.296875 0.84375 0.953125q0.3125 0.65625 0.3125 1.46875l0 3.78125q0 0.421875 0.1875 0.609375q0.203125 0.171875 0.640625 0.171875l0.546875 0l0 0.625l-4.09375 0l0 -0.625l0.390625 0q0.546875 0 0.765625 -0.171875q0.21875 -0.171875 0.21875 -0.515625l0 -3.34375q0 -1.078125 -0.34375 -1.609375q-0.453125 -0.734375 -1.40625 -0.734375q-0.9375 0 -1.5625 0.75q-0.625 0.75 -0.625 1.96875l0 2.875q0 0.421875 0.1875 0.609375q0.203125 0.171875 0.640625 0.171875l0.546875 0l0 0.625l-4.125 0l0 -0.625l0.546875 0q0.40625 0 0.609375 -0.15625q0.21875 -0.171875 0.21875 -0.421875l0 -5.015625q0 -0.5 -0.265625 -0.75q-0.265625 -0.265625 -0.78125 -0.265625l-0.390625 0l0 -0.546875zm12.584717 -4.640625q0.375 0 0.65625 0.28125q0.28125 0.28125 0.28125 0.671875q0 0.375 -0.28125 0.65625q-0.265625 0.265625 -0.65625 0.265625q-0.375 0 -0.65625 -0.28125q-0.28125 -0.28125 -0.28125 -0.65625q0 -0.375 0.28125 -0.65625q0.28125 -0.28125 0.65625 -0.28125zm-2.15625 4.640625l3.09375 -0.09375l0 6.703125q0 0.265625 0.125 0.390625q0.1875 0.15625 0.484375 0.15625l0.875 0l0 0.625l-4.40625 0l0 -0.625l0.8125 0q0.375 0 0.53125 -0.171875q0.171875 -0.1875 0.171875 -0.515625l0 -4.90625q0 -0.46875 -0.265625 -0.703125q-0.265625 -0.234375 -0.78125 -0.234375l-0.640625 0l0 -0.625zm5.613617 0l2.578125 -0.15625q0.15625 0.734375 0.234375 1.71875q0.515625 -0.859375 1.21875 -1.28125q0.71875 -0.421875 1.609375 -0.421875q0.78125 0 1.296875 0.3125q0.53125 0.296875 0.84375 0.953125q0.3125 0.65625 0.3125 1.46875l0 3.78125q0 0.421875 0.1875 0.609375q0.203125 0.171875 0.640625 0.171875l0.546875 0l0 0.625l-4.09375 0l0 -0.625l0.390625 0q0.546875 0 0.765625 -0.171875q0.21875 -0.171875 0.21875 -0.515625l0 -3.34375q0 -1.078125 -0.34375 -1.609375q-0.453125 -0.734375 -1.40625 -0.734375q-0.9375 0 -1.5625 0.75q-0.625 0.75 -0.625 1.96875l0 2.875q0 0.421875 0.1875 0.609375q0.203125 0.171875 0.640625 0.171875l0.546875 0l0 0.625l-4.125 0l0 -0.625l0.546875 0q0.40625 0 0.609375 -0.15625q0.21875 -0.171875 0.21875 -0.421875l0 -5.015625q0 -0.5 -0.265625 -0.75q-0.265625 -0.265625 -0.78125 -0.265625l-0.390625 0l0 -0.546875zm16.537842 0.4375q0.828125 -0.828125 1.53125 -0.828125q0.40625 0 0.671875 0.265625q0.28125 0.265625 0.28125 0.640625q0 0.3125 -0.1875 0.515625q-0.171875 0.203125 -0.421875 0.203125q-0.484375 0 -0.640625 -0.578125q-0.078125 -0.25 -0.234375 -0.25q-0.28125 0 -0.609375 0.375q0.359375 0.484375 0.484375 0.84375q0.140625 0.359375 0.140625 0.78125q0 0.71875 -0.359375 1.28125q-0.34375 0.546875 -1.15625 0.96875q-0.796875 0.421875 -1.546875 0.421875l-0.90625 0q-0.953125 0 -1.265625 0.203125q-0.328125 0.203125 -0.328125 0.59375q0 0.328125 0.265625 0.5q0.25 0.171875 0.96875 0.171875l2.046875 -0.03125q1.5625 0 2.234375 0.515625q0.6875 0.515625 0.6875 1.421875q0 1.0 -0.78125 1.671875q-1.078125 0.96875 -3.234375 0.96875q-1.796875 0 -2.65625 -0.65625q-0.671875 -0.515625 -0.671875 -1.15625q0 -0.484375 0.421875 -0.890625q0.4375 -0.40625 1.46875 -0.609375q-0.8125 -0.203125 -1.234375 -0.578125q-0.40625 -0.390625 -0.40625 -0.96875q0 -0.53125 0.328125 -0.921875q0.34375 -0.390625 1.171875 -0.671875q-0.703125 -0.390625 -1.0625 -0.9375q-0.359375 -0.5625 -0.359375 -1.28125q0 -1.125 0.890625 -1.890625q0.890625 -0.765625 2.296875 -0.765625q0.59375 0 1.125 0.171875q0.546875 0.171875 1.046875 0.5zm-2.1875 -0.140625q-0.734375 0 -1.21875 0.546875q-0.484375 0.546875 -0.484375 1.53125q0 1.046875 0.484375 1.625q0.484375 0.5625 1.234375 0.5625q0.75 0 1.21875 -0.546875q0.484375 -0.5625 0.484375 -1.609375q0 -0.96875 -0.484375 -1.53125q-0.484375 -0.578125 -1.234375 -0.578125zm0.5 7.5q-1.53125 0 -2.1875 0.421875q-0.640625 0.421875 -0.640625 1.015625q0 0.5625 0.484375 0.890625q0.640625 0.421875 1.84375 0.421875q1.421875 0 2.140625 -0.46875q0.734375 -0.46875 0.734375 -1.046875q0 -0.34375 -0.234375 -0.640625q-0.21875 -0.296875 -0.71875 -0.453125q-0.484375 -0.140625 -1.421875 -0.140625z" fill-rule="nonzero"></path><path fill="#000000" fill-opacity="0.0" d="m50.80315 214.40683l0 0c0 -82.051254 122.69513 -148.56693 274.04724 -148.56693l0 0c151.35211 0 274.04724 66.51568 274.04724 148.56693l0 0c0 82.05124 -122.69513 148.56693 -274.04724 148.56693l0 0c-151.35213 0 -274.04724 -66.515686 -274.04724 -148.56693z" fill-rule="evenodd"></path><path stroke="#000000" stroke-width="2.0" stroke-linejoin="round" stroke-linecap="butt" d="m50.80315 214.40683l0 0c0 -82.051254 122.69513 -148.56693 274.04724 -148.56693l0 0c151.35211 0 274.04724 66.51568 274.04724 148.56693l0 0c0 82.05124 -122.69513 148.56693 -274.04724 148.56693l0 0c-151.35213 0 -274.04724 -66.515686 -274.04724 -148.56693z" fill-rule="evenodd"></path><path fill="#000000" d="m245.27675 92.51557l0.546875 0l4.421875 11.234375q0.265625 0.671875 1.078125 0.671875l0.390625 0l0 0.625l-4.90625 0l0 -0.625l0.390625 0q0.765625 0 1.078125 -0.15625q0.21875 -0.125 0.21875 -0.359375q0 -0.140625 -0.0625 -0.296875l-1.015625 -2.609375l-4.84375 0l-0.578125 1.484375q-0.21875 0.609375 -0.21875 0.953125q0 0.40625 0.375 0.703125q0.375 0.28125 1.09375 0.28125l0.421875 0l0 0.625l-4.453125 0l0 -0.625q0.71875 0 1.125 -0.3125q0.421875 -0.3125 0.765625 -1.171875l4.171875 -10.421875zm-0.25 2.359375l-2.1875 5.46875l4.34375 0l-2.15625 -5.46875zm7.2638245 2.390625l2.796875 -0.140625l0 3.15625q0.4375 -1.5625 1.0625153 -2.359375q0.640625 -0.796875 1.578125 -0.796875q0.625 0 1.0 0.390625q0.375 0.390625 0.375 1.03125q0 0.515625 -0.25 0.8125q-0.25 0.296875 -0.640625 0.296875q-0.359375 0 -0.59375 -0.25q-0.234375 -0.25 -0.234375 -0.671875q0 -0.28125 0.140625 -0.515625q0.125 -0.21875 0.125 -0.265625q0 -0.125 -0.15625 -0.125q-0.34375 0 -0.78125 0.40625q-0.59375 0.546875 -0.92189026 1.53125q-0.5 1.5 -0.5 2.40625l0 1.671875q0 0.28125 0.203125 0.4375q0.203125 0.140625 0.68751526 0.140625l0.984375 0l0 0.625l-4.8281403 0l0 -0.625l0.765625 0q0.390625 0 0.59375 -0.15625q0.203125 -0.15625 0.203125 -0.359375l0 -4.953125q0 -0.578125 -0.25 -0.828125q-0.234375 -0.265625 -0.6875 -0.265625l-0.671875 0l0 -0.59375zm9.847305 -3.171875l0.5625 0l0 3.171875l2.515625 0l0 0.765625l-2.515625 0l0 4.984375q0 0.65625 0.3125 1.0q0.3125 0.34375 0.78125 0.34375q0.5625 0 0.953125 -0.515625q0.40625 -0.53125 0.46875 -1.734375l0.5625 0q-0.046875 1.546875 -0.703125 2.296875q-0.65625 0.75 -1.703125 0.75q-0.96875 0 -1.515625 -0.515625q-0.53125 -0.53125 -0.53125 -1.390625l0 -5.21875l-1.359375 0l0 -0.578125q0.921875 -0.15625 1.40625 -0.78125q0.71875 -0.90625 0.765625 -2.578125zm6.7121887 -1.46875q0.375 0 0.65625 0.28125q0.28125 0.28125 0.28125 0.671875q0 0.375 -0.28125 0.65625q-0.265625 0.265625 -0.65625 0.265625q-0.375 0 -0.65625 -0.28125q-0.28125 -0.28125 -0.28125 -0.65625q0 -0.375 0.28125 -0.65625q0.28125 -0.28125 0.65625 -0.28125zm-2.15625 4.640625l3.09375 -0.09375l0 6.703125q0 0.265625 0.125 0.390625q0.1875 0.15625 0.484375 0.15625l0.875 0l0 0.625l-4.40625 0l0 -0.625l0.8125 0q0.375 0 0.53125 -0.171875q0.171875 -0.1875 0.171875 -0.515625l0 -4.90625q0 -0.46875 -0.265625 -0.703125q-0.265625 -0.234375 -0.78125 -0.234375l-0.640625 0l0 -0.625zm8.269836 0l1.9375 0l0 0.71875l-1.9375 0l0 5.6875q0 0.390625 0.171875 0.546875q0.25 0.203125 0.703125 0.203125l1.0625 0l0 0.625l-4.765625 0l0 -0.625l0.65625 0q0.4375 0 0.609375 -0.140625q0.171875 -0.15625 0.171875 -0.46875l0 -5.828125l-1.34375 0l0 -0.71875l1.34375 0l0 -0.578125q0 -2.0625 0.859375 -3.140625q0.859375 -1.078125 2.125 -1.078125q0.9375 0 1.453125 0.453125q0.53125 0.453125 0.53125 1.1875q0 0.484375 -0.25 0.765625q-0.25 0.28125 -0.640625 0.28125q-0.359375 0 -0.59375 -0.21875q-0.21875 -0.234375 -0.21875 -0.578125q0 -0.390625 0.296875 -0.640625q0.25 -0.1875 0.25 -0.296875q0 -0.140625 -0.1875 -0.25q-0.1875 -0.125 -0.5625 -0.125q-0.703125 0 -1.1875 0.640625q-0.484375 0.625 -0.484375 1.859375l0 1.71875zm5.1141663 -4.640625q0.375 0 0.65625 0.28125q0.28125 0.28125 0.28125 0.671875q0 0.375 -0.28125 0.65625q-0.265625 0.265625 -0.65625 0.265625q-0.375 0 -0.65625 -0.28125q-0.28125 -0.28125 -0.28125 -0.65625q0 -0.375 0.28125 -0.65625q0.28125 -0.28125 0.65625 -0.28125zm-2.15625 4.640625l3.09375 -0.09375l0 6.703125q0 0.265625 0.125 0.390625q0.1875 0.15625 0.484375 0.15625l0.875 0l0 0.625l-4.40625 0l0 -0.625l0.8125 0q0.375 0 0.53125 -0.171875q0.171875 -0.1875 0.171875 -0.515625l0 -4.90625q0 -0.46875 -0.265625 -0.703125q-0.265625 -0.234375 -0.78125 -0.234375l-0.640625 0l0 -0.625zm11.551086 5.46875l0.546875 0.15625q-0.65625 2.390625 -2.859375 2.390625q-1.625 0 -2.65625 -1.0625q-1.03125 -1.078125 -1.03125 -2.859375q0 -2.0625 1.125 -3.1875q1.140625 -1.140625 2.671875 -1.140625q1.140625 0 1.890625 0.640625q0.75 0.625 0.75 1.390625q0 0.46875 -0.28125 0.78125q-0.28125 0.296875 -0.65625 0.296875q-0.375 0 -0.640625 -0.25q-0.25 -0.265625 -0.25 -0.625q0 -0.375 0.28125 -0.703125q0.125 -0.15625 0.125 -0.25q0 -0.234375 -0.328125 -0.453125q-0.3125 -0.234375 -0.875 -0.234375q-1.015625 0 -1.53125 0.734375q-0.75 1.0625 -0.75 2.8125q0 1.671875 0.65625 2.53125q0.671875 0.859375 1.703125 0.859375q1.421875 0 2.109375 -1.828125zm3.7535706 -10.109375q0.375 0 0.65625 0.28125q0.28125 0.28125 0.28125 0.671875q0 0.375 -0.28125 0.65625q-0.265625 0.265625 -0.65625 0.265625q-0.375 0 -0.65625 -0.28125q-0.28125 -0.28125 -0.28125 -0.65625q0 -0.375 0.28125 -0.65625q0.28125 -0.28125 0.65625 -0.28125zm-2.15625 4.640625l3.09375 -0.09375l0 6.703125q0 0.265625 0.125 0.390625q0.1875 0.15625 0.484375 0.15625l0.875 0l0 0.625l-4.40625 0l0 -0.625l0.8125 0q0.375 0 0.53125 -0.171875q0.171875 -0.1875 0.171875 -0.515625l0 -4.90625q0 -0.46875 -0.265625 -0.703125q-0.265625 -0.234375 -0.78125 -0.234375l-0.640625 0l0 -0.625zm13.832336 6.921875l0.296875 0.46875q-0.609375 0.625 -1.34375 0.625q-0.578125 0 -0.96875 -0.296875q-0.375 -0.3125 -0.671875 -1.09375q-0.78125 0.828125 -1.375 1.109375q-0.59375 0.28125 -1.4375 0.28125q-1.203125 0 -1.828125 -0.515625q-0.609375 -0.515625 -0.609375 -1.328125q0 -1.203125 1.421875 -2.0q1.421875 -0.8125 3.78125 -1.078125l0 -1.171875q0 -0.625 -0.515625 -1.078125q-0.5 -0.453125 -1.265625 -0.453125q-0.734375 0 -1.25 0.296875q-0.375 0.234375 -0.375 0.4375q0 0.125 0.203125 0.390625q0.234375 0.34375 0.234375 0.59375q0 0.375 -0.25 0.609375q-0.234375 0.234375 -0.625 0.234375q-0.40625 0 -0.6875 -0.28125q-0.28125 -0.28125 -0.28125 -0.71875q0 -0.828125 0.921875 -1.5q0.9375 -0.6875 2.4375 -0.6875q1.390625 0 2.109375 0.609375q0.734375 0.59375 0.734375 1.46875l0 4.25q0 0.5625 0.1875 0.828125q0.171875 0.265625 0.46875 0.265625q0.328125 0 0.6875 -0.265625zm-2.734375 -3.28125q-2.109375 0.296875 -2.984375 0.953125q-0.65625 0.5 -0.65625 1.40625q0 0.640625 0.34375 1.0q0.34375 0.359375 0.890625 0.359375q0.96875 0 1.6875 -0.734375q0.71875 -0.75 0.71875 -1.859375l0 -1.125zm7.074585 -8.28125l0 11.28125q0 0.234375 0.140625 0.359375q0.203125 0.15625 0.515625 0.15625l0.8125 0l0 0.625l-4.390625 0l0 -0.625l0.78125 0q0.375 0 0.5625 -0.171875q0.1875 -0.1875 0.1875 -0.515625l0 -9.46875q0 -0.421875 -0.21875 -0.609375q-0.3125 -0.265625 -0.765625 -0.265625l-0.6875 0l0 -0.625l3.0625 -0.140625zm7.4122925 0.140625l5.671875 0l0 0.625l-0.96875 0q-0.65625 0 -0.828125 0.171875q-0.171875 0.15625 -0.171875 0.671875l0 9.296875q0 0.5625 0.15625 0.703125q0.203125 0.1875 0.71875 0.1875l1.09375 0l0 0.625l-5.671875 0l0 -0.625l1.078125 0q0.5625 0 0.71875 -0.15625q0.171875 -0.171875 0.171875 -0.734375l0 -9.296875q0 -0.53125 -0.140625 -0.65625q-0.234375 -0.1875 -0.859375 -0.1875l-0.96875 0l0 -0.625zm6.993988 4.5l2.578125 -0.15625q0.15625 0.734375 0.234375 1.71875q0.515625 -0.859375 1.21875 -1.28125q0.71875 -0.421875 1.609375 -0.421875q0.78125 0 1.296875 0.3125q0.53125 0.296875 0.84375 0.953125q0.3125 0.65625 0.3125 1.46875l0 3.78125q0 0.421875 0.1875 0.609375q0.203125 0.171875 0.640625 0.171875l0.546875 0l0 0.625l-4.09375 0l0 -0.625l0.390625 0q0.546875 0 0.765625 -0.171875q0.21875 -0.171875 0.21875 -0.515625l0 -3.34375q0 -1.078125 -0.34375 -1.609375q-0.453125 -0.734375 -1.40625 -0.734375q-0.9375 0 -1.5625 0.75q-0.625 0.75 -0.625 1.96875l0 2.875q0 0.421875 0.1875 0.609375q0.203125 0.171875 0.640625 0.171875l0.546875 0l0 0.625l-4.125 0l0 -0.625l0.546875 0q0.40625 0 0.609375 -0.15625q0.21875 -0.171875 0.21875 -0.421875l0 -5.015625q0 -0.5 -0.265625 -0.75q-0.265625 -0.265625 -0.78125 -0.265625l-0.390625 0l0 -0.546875zm12.615967 -3.171875l0.5625 0l0 3.171875l2.515625 0l0 0.765625l-2.515625 0l0 4.984375q0 0.65625 0.3125 1.0q0.3125 0.34375 0.78125 0.34375q0.5625 0 0.953125 -0.515625q0.40625 -0.53125 0.46875 -1.734375l0.5625 0q-0.046875 1.546875 -0.703125 2.296875q-0.65625 0.75 -1.703125 0.75q-0.96875 0 -1.515625 -0.515625q-0.53125 -0.53125 -0.53125 -1.390625l0 -5.21875l-1.359375 0l0 -0.578125q0.921875 -0.15625 1.40625 -0.78125q0.71875 -0.90625 0.765625 -2.578125zm12.009033 7.125l-5.578125 0q0.046875 1.765625 0.671875 2.5q0.703125 0.828125 1.8125 0.828125q1.625 0 2.609375 -1.859375l0.546875 0.234375q-1.21875 2.359375 -3.5 2.359375q-1.5625 0 -2.640625 -1.125q-1.0625 -1.140625 -1.0625 -2.890625q0 -1.890625 1.046875 -3.0625q1.0625 -1.171875 2.59375 -1.171875q1.125 0 1.9375 0.59375q0.828125 0.578125 1.25 1.65625q0.296875 0.765625 0.3125 1.9375zm-5.578125 -0.59375l3.375 0q0.296875 0 0.453125 -0.203125q0.171875 -0.203125 0.171875 -0.703125q0 -0.90625 -0.578125 -1.546875q-0.5625 -0.640625 -1.328125 -0.640625q-0.859375 0 -1.46875 0.78125q-0.59375 0.765625 -0.625 2.3125zm9.8671875 -8.0l0 11.28125q0 0.234375 0.140625 0.359375q0.203125 0.15625 0.515625 0.15625l0.8125 0l0 0.625l-4.390625 0l0 -0.625l0.78125 0q0.375 0 0.5625 -0.171875q0.1875 -0.1875 0.1875 -0.515625l0 -9.46875q0 -0.421875 -0.21875 -0.609375q-0.3125 -0.265625 -0.765625 -0.265625l-0.6875 0l0 -0.625l3.0625 -0.140625zm5.457367 0l0 11.28125q0 0.234375 0.140625 0.359375q0.203125 0.15625 0.515625 0.15625l0.8125 0l0 0.625l-4.390625 0l0 -0.625l0.78125 0q0.375 0 0.5625 -0.171875q0.1875 -0.1875 0.1875 -0.515625l0 -9.46875q0 -0.421875 -0.21875 -0.609375q-0.3125 -0.265625 -0.765625 -0.265625l-0.6875 0l0 -0.625l3.0625 -0.140625zm4.5354614 0q0.375 0 0.65625 0.28125q0.28125 0.28125 0.28125 0.671875q0 0.375 -0.28125 0.65625q-0.265625 0.265625 -0.65625 0.265625q-0.375 0 -0.65625 -0.28125q-0.28125 -0.28125 -0.28125 -0.65625q0 -0.375 0.28125 -0.65625q0.28125 -0.28125 0.65625 -0.28125zm-2.15625 4.640625l3.09375 -0.09375l0 6.703125q0 0.265625 0.125 0.390625q0.1875 0.15625 0.484375 0.15625l0.875 0l0 0.625l-4.40625 0l0 -0.625l0.8125 0q0.375 0 0.53125 -0.171875q0.171875 -0.1875 0.171875 -0.515625l0 -4.90625q0 -0.46875 -0.265625 -0.703125q-0.265625 -0.234375 -0.78125 -0.234375l-0.640625 0l0 -0.625zm11.566742 0.4375q0.828125 -0.828125 1.53125 -0.828125q0.40625 0 0.671875 0.265625q0.28125 0.265625 0.28125 0.640625q0 0.3125 -0.1875 0.515625q-0.171875 0.203125 -0.421875 0.203125q-0.484375 0 -0.640625 -0.578125q-0.078125 -0.25 -0.234375 -0.25q-0.28125 0 -0.609375 0.375q0.359375 0.484375 0.484375 0.84375q0.140625 0.359375 0.140625 0.78125q0 0.71875 -0.359375 1.28125q-0.34375 0.546875 -1.15625 0.96875q-0.796875 0.421875 -1.546875 0.421875l-0.90625 0q-0.953125 0 -1.265625 0.203125q-0.328125 0.203125 -0.328125 0.59375q0 0.328125 0.265625 0.5q0.25 0.171875 0.96875 0.171875l2.046875 -0.03125q1.5625 0 2.234375 0.515625q0.6875 0.515625 0.6875 1.421875q0 1.0 -0.78125 1.671875q-1.078125 0.96875 -3.234375 0.96875q-1.796875 0 -2.65625 -0.65625q-0.671875 -0.515625 -0.671875 -1.15625q0 -0.484375 0.421875 -0.890625q0.4375 -0.40625 1.46875 -0.609375q-0.8125 -0.203125 -1.234375 -0.578125q-0.40625 -0.390625 -0.40625 -0.96875q0 -0.53125 0.328125 -0.921875q0.34375 -0.390625 1.171875 -0.671875q-0.703125 -0.390625 -1.0625 -0.9375q-0.359375 -0.5625 -0.359375 -1.28125q0 -1.125 0.890625 -1.890625q0.890625 -0.765625 2.296875 -0.765625q0.59375 0 1.125 0.171875q0.546875 0.171875 1.046875 0.5zm-2.1875 -0.140625q-0.734375 0 -1.21875 0.546875q-0.484375 0.546875 -0.484375 1.53125q0 1.046875 0.484375 1.625q0.484375 0.5625 1.234375 0.5625q0.75 0 1.21875 -0.546875q0.484375 -0.5625 0.484375 -1.609375q0 -0.96875 -0.484375 -1.53125q-0.484375 -0.578125 -1.234375 -0.578125zm0.5 7.5q-1.53125 0 -2.1875 0.421875q-0.640625 0.421875 -0.640625 1.015625q0 0.5625 0.484375 0.890625q0.640625 0.421875 1.84375 0.421875q1.421875 0 2.140625 -0.46875q0.734375 -0.46875 0.734375 -1.046875q0 -0.34375 -0.234375 -0.640625q-0.21875 -0.296875 -0.71875 -0.453125q-0.484375 -0.140625 -1.421875 -0.140625zm12.338348 -3.84375l-5.578125 0q0.046875 1.765625 0.671875 2.5q0.703125 0.828125 1.8125 0.828125q1.625 0 2.609375 -1.859375l0.546875 0.234375q-1.21875 2.359375 -3.5 2.359375q-1.5625 0 -2.640625 -1.125q-1.0625 -1.140625 -1.0625 -2.890625q0 -1.890625 1.046875 -3.0625q1.0625 -1.171875 2.59375 -1.171875q1.125 0 1.9375 0.59375q0.828125 0.578125 1.25 1.65625q0.296875 0.765625 0.3125 1.9375zm-5.578125 -0.59375l3.375 0q0.296875 0 0.453125 -0.203125q0.171875 -0.203125 0.171875 -0.703125q0 -0.90625 -0.578125 -1.546875q-0.5625 -0.640625 -1.328125 -0.640625q-0.859375 0 -1.46875 0.78125q-0.59375 0.765625 -0.625 2.3125zm6.9453125 -3.359375l2.578125 -0.15625q0.15625 0.734375 0.234375 1.71875q0.515625 -0.859375 1.21875 -1.28125q0.71875 -0.421875 1.609375 -0.421875q0.78125 0 1.296875 0.3125q0.53125 0.296875 0.84375 0.953125q0.3125 0.65625 0.3125 1.46875l0 3.78125q0 0.421875 0.1875 0.609375q0.203125 0.171875 0.640625 0.171875l0.546875 0l0 0.625l-4.09375 0l0 -0.625l0.390625 0q0.546875 0 0.765625 -0.171875q0.21875 -0.171875 0.21875 -0.515625l0 -3.34375q0 -1.078125 -0.34375 -1.609375q-0.453125 -0.734375 -1.40625 -0.734375q-0.9375 0 -1.5625 0.75q-0.625 0.75 -0.625 1.96875l0 2.875q0 0.421875 0.1875 0.609375q0.203125 0.171875 0.640625 0.171875l0.546875 0l0 0.625l-4.125 0l0 -0.625l0.546875 0q0.40625 0 0.609375 -0.15625q0.21875 -0.171875 0.21875 -0.421875l0 -5.015625q0 -0.5 -0.265625 -0.75q-0.265625 -0.265625 -0.78125 -0.265625l-0.390625 0l0 -0.546875zm16.522217 5.46875l0.546875 0.15625q-0.65625 2.390625 -2.859375 2.390625q-1.625 0 -2.65625 -1.0625q-1.03125 -1.078125 -1.03125 -2.859375q0 -2.0625 1.125 -3.1875q1.140625 -1.140625 2.671875 -1.140625q1.140625 0 1.890625 0.640625q0.75 0.625 0.75 1.390625q0 0.46875 -0.28125 0.78125q-0.28125 0.296875 -0.65625 0.296875q-0.375 0 -0.640625 -0.25q-0.25 -0.265625 -0.25 -0.625q0 -0.375 0.28125 -0.703125q0.125 -0.15625 0.125 -0.25q0 -0.234375 -0.328125 -0.453125q-0.3125 -0.234375 -0.875 -0.234375q-1.015625 0 -1.53125 0.734375q-0.75 1.0625 -0.75 2.8125q0 1.671875 0.65625 2.53125q0.671875 0.859375 1.703125 0.859375q1.421875 0 2.109375 -1.828125zm9.050415 -1.515625l-5.578125 0q0.046875 1.765625 0.671875 2.5q0.703125 0.828125 1.8125 0.828125q1.625 0 2.609375 -1.859375l0.546875 0.234375q-1.21875 2.359375 -3.5 2.359375q-1.5625 0 -2.640625 -1.125q-1.0625 -1.140625 -1.0625 -2.890625q0 -1.890625 1.046875 -3.0625q1.0625 -1.171875 2.59375 -1.171875q1.125 0 1.9375 0.59375q0.828125 0.578125 1.25 1.65625q0.296875 0.765625 0.3125 1.9375zm-5.578125 -0.59375l3.375 0q0.296875 0 0.453125 -0.203125q0.171875 -0.203125 0.171875 -0.703125q0 -0.90625 -0.578125 -1.546875q-0.5625 -0.640625 -1.328125 -0.640625q-0.859375 0 -1.46875 0.78125q-0.59375 0.765625 -0.625 2.3125z" fill-rule="nonzero"></path><path fill="#000000" fill-opacity="0.0" d="m0 207.07086l0 0c0 -114.362076 145.44048 -207.07086 324.8504 -207.07086l0 0c179.40991 -3.9393293E-14 324.8504 92.708786 324.8504 207.07086l0 0c0 114.36209 -145.44049 207.07086 -324.8504 207.07086l0 0c-179.40993 0 -324.8504 -92.70877 -324.8504 -207.07086z" fill-rule="evenodd"></path><path stroke="#000000" stroke-width="2.0" stroke-linejoin="round" stroke-linecap="butt" d="m0 207.07086l0 0c0 -114.362076 145.44048 -207.07086 324.8504 -207.07086l0 0c179.40991 -3.9393293E-14 324.8504 92.708786 324.8504 207.07086l0 0c0 114.36209 -145.44049 207.07086 -324.8504 207.07086l0 0c-179.40993 0 -324.8504 -92.70877 -324.8504 -207.07086z" fill-rule="evenodd"></path><path fill="#000000" d="m262.34412 33.882744l0.5625 -1.1875l0.53125 0l0.203125 4.9375l-0.546875 0q-0.546875 -2.078125 -1.375 -3.0625q-1.03125 -1.234375 -2.46875 -1.234375q-1.53125 0 -2.515625 1.375q-0.96875 1.375 -0.96875 4.671875q0 2.75 1.125 4.203125q0.9375 1.234375 2.65625 1.234375q1.484375 0 2.5 -0.953125q1.015625 -0.96875 1.3125 -2.890625l0.59375 0q-0.25 2.1875 -1.5 3.375q-1.25 1.171875 -3.140625 1.171875q-1.53125 0 -2.8125 -0.765625q-1.28125 -0.78125 -2.0625 -2.234375q-0.765625 -1.453125 -0.765625 -3.171875q0 -1.828125 0.796875 -3.4375q0.796875 -1.625 2.03125 -2.421875q1.234375 -0.8125 2.671875 -0.8125q0.796875 0 1.53125 0.28125q0.75 0.265625 1.640625 0.921875zm6.8888245 3.3125q1.578125 0 2.640625 1.140625q1.0625 1.125 1.0625 2.984375q0 1.28125 -0.484375 2.1875q-0.46875 0.890625 -1.359375 1.421875q-0.875 0.515625 -1.890625 0.515625q-1.515625 0 -2.5625 -1.140625q-1.046875 -1.15625 -1.046875 -2.984375q0 -1.828125 1.046875 -2.96875q1.0625 -1.15625 2.59375 -1.15625zm0 0.59375q-0.921875 0 -1.53125 0.84375q-0.59375 0.84375 -0.59375 2.65625q0 1.859375 0.59375 2.71875q0.59375 0.84375 1.53125 0.84375q0.984375 0 1.578125 -0.84375q0.609375 -0.859375 0.609375 -2.8125q0 -1.796875 -0.59375 -2.59375q-0.59375 -0.8125 -1.59375 -0.8125zm5.4765625 -0.359375l2.234375 -0.140625q0.171875 0.875 0.234375 1.65625q0.640625 -0.90625 1.265625 -1.28125q0.625 -0.375 1.390625 -0.375q0.796875 0 1.3125 0.421875q0.53125 0.421875 0.8125 1.375q0.5625 -0.890625 1.234375 -1.34375q0.6875 -0.453125 1.484375 -0.453125q1.0625 0 1.59375 0.640625q0.6875 0.828125 0.6875 2.140625l0 3.859375q0 0.34375 0.171875 0.46875q0.234375 0.1875 0.6875 0.1875l0.390625 0l0 0.625l-3.90625 0l0 -0.625l0.390625 0q0.5 0 0.6875 -0.15625q0.203125 -0.171875 0.203125 -0.5l0 -3.859375q0 -0.875 -0.421875 -1.34375q-0.421875 -0.46875 -1.109375 -0.46875q-0.515625 0 -0.953125 0.28125q-0.421875 0.265625 -0.65625 0.78125q-0.359375 0.75 -0.359375 1.265625l0 3.34375q0 0.328125 0.1875 0.5q0.1875 0.15625 0.5625 0.15625l0.53125 0l0 0.625l-3.953125 0l0 -0.625l0.4375 0q0.421875 0 0.625 -0.15625q0.21875 -0.171875 0.21875 -0.4375l0 -3.578125q0 -1.140625 -0.40625 -1.65625q-0.40625 -0.515625 -1.078125 -0.515625q-0.875 0 -1.359375 0.609375q-0.671875 0.84375 -0.671875 1.96875l0 3.109375q0 0.34375 0.15625 0.484375q0.234375 0.171875 0.703125 0.171875l0.390625 0l0 0.625l-3.90625 0l0 -0.625l0.578125 0q0.34375 0 0.515625 -0.15625q0.171875 -0.171875 0.171875 -0.4375l0 -5.09375q0 -0.421875 -0.21875 -0.625q-0.203125 -0.203125 -0.859375 -0.265625l0 -0.578125zm17.391846 -0.140625q0.1875 0.875 0.21875 1.671875q0.5625 -0.90625 1.1875 -1.28125q0.640625 -0.390625 1.390625 -0.390625q0.796875 0 1.515625 0.5q0.734375 0.484375 1.1875 1.4375q0.453125 0.9375 0.453125 2.125q0 1.90625 -1.109375 3.09375q-0.921875 1.0 -2.21875 1.0q-0.71875 0 -1.3125 -0.375q-0.59375 -0.375 -1.046875 -1.109375l0 3.140625q0 0.375 0.171875 0.515625q0.21875 0.203125 0.625 0.203125l0.578125 0l0 0.59375l-4.15625 0l0 -0.59375l0.578125 0q0.40625 0 0.59375 -0.15625q0.203125 -0.15625 0.203125 -0.421875l0 -8.1875q0 -0.5625 -0.28125 -0.796875q-0.265625 -0.25 -1.09375 -0.265625l0 -0.5625l2.515625 -0.140625zm2.40625 0.765625q-0.890625 0 -1.53125 0.875q-0.625 0.859375 -0.625 2.515625q0 1.671875 0.609375 2.46875q0.609375 0.796875 1.546875 0.796875q0.875 0 1.359375 -0.6875q0.59375 -0.890625 0.59375 -2.625q0 -1.8125 -0.546875 -2.578125q-0.546875 -0.765625 -1.40625 -0.765625zm7.7470093 -0.765625l0 5.15625q0 0.953125 0.46875 1.46875q0.484375 0.515625 1.25 0.515625q0.921875 0 1.5625 -0.75q0.65625 -0.765625 0.65625 -1.890625l0 -2.90625q0 -0.40625 -0.28125 -0.625q-0.28125 -0.21875 -1.09375 -0.25l0 -0.578125l2.734375 -0.140625l0 6.390625q0 0.4375 0.234375 0.671875q0.25 0.234375 0.703125 0.234375l0.484375 0l0 0.5625l-2.609375 0.0625l-0.171875 -1.53125q-0.6875 0.8125 -1.390625 1.234375q-0.703125 0.40625 -1.4375 0.40625q-1.046875 0 -1.765625 -0.703125q-0.71875 -0.6875 -0.71875 -2.359375l0 -3.375q0 -0.453125 -0.359375 -0.6875q-0.25 -0.171875 -1.015625 -0.1875l0 -0.578125l2.75 -0.140625zm9.959717 -3.03125l0.5625 0l0 3.171875l2.515625 0l0 0.765625l-2.515625 0l0 4.984375q0 0.65625 0.3125 1.0q0.3125 0.34375 0.78125 0.34375q0.5625 0 0.953125 -0.515625q0.40625 -0.53125 0.46875 -1.734375l0.5625 0q-0.046875 1.546875 -0.703125 2.296875q-0.65625 0.75 -1.703125 0.75q-0.96875 0 -1.515625 -0.515625q-0.53125 -0.53125 -0.53125 -1.390625l0 -5.21875l-1.359375 0l0 -0.578125q0.921875 -0.15625 1.40625 -0.78125q0.71875 -0.90625 0.765625 -2.578125zm12.009064 7.125l-5.578125 0q0.046875 1.765625 0.671875 2.5q0.703125 0.828125 1.8125 0.828125q1.625 0 2.609375 -1.859375l0.546875 0.234375q-1.21875 2.359375 -3.5 2.359375q-1.5625 0 -2.640625 -1.125q-1.0625 -1.140625 -1.0625 -2.890625q0 -1.890625 1.046875 -3.0625q1.0625 -1.171875 2.59375 -1.171875q1.125 0 1.9375 0.59375q0.828125 0.578125 1.25 1.65625q0.296875 0.765625 0.3125 1.9375zm-5.578125 -0.59375l3.375 0q0.296875 0 0.453125 -0.203125q0.171875 -0.203125 0.171875 -0.703125q0 -0.90625 -0.578125 -1.546875q-0.5625 -0.640625 -1.328125 -0.640625q-0.859375 0 -1.46875 0.78125q-0.59375 0.765625 -0.625 2.3125zm6.8203125 -3.359375l2.796875 -0.140625l0 3.15625q0.4375 -1.5625 1.0625 -2.359375q0.640625 -0.796875 1.578125 -0.796875q0.625 0 1.0 0.390625q0.375 0.390625 0.375 1.03125q0 0.515625 -0.25 0.8125q-0.25 0.296875 -0.640625 0.296875q-0.359375 0 -0.59375 -0.25q-0.234375 -0.25 -0.234375 -0.671875q0 -0.28125 0.140625 -0.515625q0.125 -0.21875 0.125 -0.265625q0 -0.125 -0.15625 -0.125q-0.34375 0 -0.78125 0.40625q-0.59375 0.546875 -0.921875 1.53125q-0.5 1.5 -0.5 2.40625l0 1.671875q0 0.28125 0.203125 0.4375q0.203125 0.140625 0.6875 0.140625l0.984375 0l0 0.625l-4.828125 0l0 -0.625l0.765625 0q0.390625 0 0.59375 -0.15625q0.203125 -0.15625 0.203125 -0.359375l0 -4.953125q0 -0.578125 -0.25 -0.828125q-0.234375 -0.265625 -0.6875 -0.265625l-0.671875 0l0 -0.59375zm19.927246 -3.5625l0.75 -1.078125l0.609375 0l0.046875 4.484375l-0.546875 0q-0.515625 -2.0625 -1.53125 -3.0q-1.0 -0.953125 -2.3125 -0.953125q-1.09375 0 -1.796875 0.65625q-0.703125 0.65625 -0.703125 1.59375q0 0.59375 0.265625 1.046875q0.265625 0.4375 0.796875 0.71875q0.53125 0.265625 1.984375 0.59375q2.0625 0.4375 2.875 0.90625q0.828125 0.453125 1.234375 1.140625q0.40625 0.6875 0.40625 1.625q0 1.65625 -1.109375 2.75q-1.109375 1.09375 -2.890625 1.09375q-1.890625 0 -3.296875 -1.234375l-0.9375 1.15625l-0.59375 0l0 -4.765625l0.59375 0q0.34375 1.96875 1.546875 3.109375q1.21875 1.140625 2.75 1.140625q1.21875 0 2.0 -0.71875q0.78125 -0.734375 0.78125 -1.78125q0 -0.578125 -0.296875 -1.015625q-0.296875 -0.453125 -0.921875 -0.75q-0.625 -0.3125 -2.484375 -0.75q-2.03125 -0.484375 -2.765625 -1.078125q-1.046875 -0.84375 -1.046875 -2.390625q0 -1.625 1.03125 -2.65625q1.046875 -1.03125 2.65625 -1.03125q0.765625 0 1.453125 0.28125q0.703125 0.265625 1.453125 0.90625zm9.555298 9.03125l0.546875 0.15625q-0.65625 2.390625 -2.859375 2.390625q-1.625 0 -2.65625 -1.0625q-1.03125 -1.078125 -1.03125 -2.859375q0 -2.0625 1.125 -3.1875q1.140625 -1.140625 2.671875 -1.140625q1.140625 0 1.890625 0.640625q0.75 0.625 0.75 1.390625q0 0.46875 -0.28125 0.78125q-0.28125 0.296875 -0.65625 0.296875q-0.375 0 -0.640625 -0.25q-0.25 -0.265625 -0.25 -0.625q0 -0.375 0.28125 -0.703125q0.125 -0.15625 0.125 -0.25q0 -0.234375 -0.328125 -0.453125q-0.3125 -0.234375 -0.875 -0.234375q-1.015625 0 -1.53125 0.734375q-0.75 1.0625 -0.75 2.8125q0 1.671875 0.65625 2.53125q0.671875 0.859375 1.703125 0.859375q1.421875 0 2.109375 -1.828125zm3.7535706 -10.109375q0.375 0 0.65625 0.28125q0.28125 0.28125 0.28125 0.671875q0 0.375 -0.28125 0.65625q-0.265625 0.265625 -0.65625 0.265625q-0.375 0 -0.65625 -0.28125q-0.28125 -0.28125 -0.28125 -0.65625q0 -0.375 0.28125 -0.65625q0.28125 -0.28125 0.65625 -0.28125zm-2.15625 4.640625l3.09375 -0.09375l0 6.703125q0 0.265625 0.125 0.390625q0.1875 0.15625 0.484375 0.15625l0.875 0l0 0.625l-4.40625 0l0 -0.625l0.8125 0q0.375 0 0.53125 -0.171875q0.171875 -0.1875 0.171875 -0.515625l0 -4.90625q0 -0.46875 -0.265625 -0.703125q-0.265625 -0.234375 -0.78125 -0.234375l-0.640625 0l0 -0.625zm12.910492 3.953125l-5.578125 0q0.046875 1.765625 0.671875 2.5q0.703125 0.828125 1.8125 0.828125q1.625 0 2.609375 -1.859375l0.546875 0.234375q-1.21875 2.359375 -3.5 2.359375q-1.5625 0 -2.640625 -1.125q-1.0625 -1.140625 -1.0625 -2.890625q0 -1.890625 1.046875 -3.0625q1.0625 -1.171875 2.59375 -1.171875q1.125 0 1.9375 0.59375q0.828125 0.578125 1.25 1.65625q0.296875 0.765625 0.3125 1.9375zm-5.578125 -0.59375l3.375 0q0.296875 0 0.453125 -0.203125q0.171875 -0.203125 0.171875 -0.703125q0 -0.90625 -0.578125 -1.546875q-0.5625 -0.640625 -1.328125 -0.640625q-0.859375 0 -1.46875 0.78125q-0.59375 0.765625 -0.625 2.3125zm6.9453125 -3.359375l2.578125 -0.15625q0.15625 0.734375 0.234375 1.71875q0.515625 -0.859375 1.21875 -1.28125q0.71875 -0.421875 1.609375 -0.421875q0.78125 0 1.296875 0.3125q0.53125 0.296875 0.84375 0.953125q0.3125 0.65625 0.3125 1.46875l0 3.78125q0 0.421875 0.1875 0.609375q0.203125 0.171875 0.640625 0.171875l0.546875 0l0 0.625l-4.09375 0l0 -0.625l0.390625 0q0.546875 0 0.765625 -0.171875q0.21875 -0.171875 0.21875 -0.515625l0 -3.34375q0 -1.078125 -0.34375 -1.609375q-0.453125 -0.734375 -1.40625 -0.734375q-0.9375 0 -1.5625 0.75q-0.625 0.75 -0.625 1.96875l0 2.875q0 0.421875 0.1875 0.609375q0.203125 0.171875 0.640625 0.171875l0.546875 0l0 0.625l-4.125 0l0 -0.625l0.546875 0q0.40625 0 0.609375 -0.15625q0.21875 -0.171875 0.21875 -0.421875l0 -5.015625q0 -0.5 -0.265625 -0.75q-0.265625 -0.265625 -0.78125 -0.265625l-0.390625 0l0 -0.546875zm16.522217 5.46875l0.546875 0.15625q-0.65625 2.390625 -2.859375 2.390625q-1.625 0 -2.65625 -1.0625q-1.03125 -1.078125 -1.03125 -2.859375q0 -2.0625 1.125 -3.1875q1.140625 -1.140625 2.671875 -1.140625q1.140625 0 1.890625 0.640625q0.75 0.625 0.75 1.390625q0 0.46875 -0.28125 0.78125q-0.28125 0.296875 -0.65625 0.296875q-0.375 0 -0.640625 -0.25q-0.25 -0.265625 -0.25 -0.625q0 -0.375 0.28125 -0.703125q0.125 -0.15625 0.125 -0.25q0 -0.234375 -0.328125 -0.453125q-0.3125 -0.234375 -0.875 -0.234375q-1.015625 0 -1.53125 0.734375q-0.75 1.0625 -0.75 2.8125q0 1.671875 0.65625 2.53125q0.671875 0.859375 1.703125 0.859375q1.421875 0 2.109375 -1.828125zm9.050415 -1.515625l-5.578125 0q0.046875 1.765625 0.671875 2.5q0.703125 0.828125 1.8125 0.828125q1.625 0 2.609375 -1.859375l0.546875 0.234375q-1.21875 2.359375 -3.5 2.359375q-1.5625 0 -2.640625 -1.125q-1.0625 -1.140625 -1.0625 -2.890625q0 -1.890625 1.046875 -3.0625q1.0625 -1.171875 2.59375 -1.171875q1.125 0 1.9375 0.59375q0.828125 0.578125 1.25 1.65625q0.296875 0.765625 0.3125 1.9375zm-5.578125 -0.59375l3.375 0q0.296875 0 0.453125 -0.203125q0.171875 -0.203125 0.171875 -0.703125q0 -0.90625 -0.578125 -1.546875q-0.5625 -0.640625 -1.328125 -0.640625q-0.859375 0 -1.46875 0.78125q-0.59375 0.765625 -0.625 2.3125z" fill-rule="nonzero"></path></g></svg>

